M48
METRIC,LZ,000.000
;FILE_FORMAT=3:3
;TYPE=PLATED
;Layer: PTH_Through
;EasyEDA v6.5.47, 2024-09-27 13:25:38
;cb8a5c33274e4434a5d5d060cedbf222,e87ba6ffdfb0417d91de07616a749205,10
;Gerber Generator version 0.2
;Holesize 1 = 0.400 mm
T01C0.400
;Holesize 2 = 0.901 mm
T02C0.901
;Holesize 3 = 0.914 mm
T03C0.914
;Holesize 4 = 0.915 mm
T04C0.915
;Holesize 5 = 1.000 mm
T05C1.000
%
G05
G90
T01
X027275Y-010247
X047595Y-015536
X017664Y-008890
X016502Y-007449
X045848Y-024128
X030825Y-029392
T02
X005715Y-024050
X005715Y-014050
X011430Y-024050
X011430Y-014050
T03
X021125Y-022860
X021125Y-025400
X021125Y-027940
X021125Y-030480
X021125Y-033020
X021125Y-035560
X021125Y-038100
X021125Y-040640
X021125Y-043180
X021125Y-045720
X021125Y-048260
X021125Y-050800
X021125Y-053340
X021125Y-055880
X021125Y-058420
X048725Y-058420
X048725Y-055880
X048725Y-053340
X048725Y-050800
X048725Y-048260
X048725Y-045720
X048725Y-043180
X048725Y-040640
X048725Y-038100
X048725Y-035560
X048725Y-033020
X048725Y-030480
X048725Y-027940
X048725Y-025400
X048725Y-022860
T04
X011447Y-002126
X013987Y-002126
X016527Y-002126
X019067Y-002126
X021607Y-002126
X024147Y-002126
X026687Y-002126
X029227Y-002126
X031767Y-002126
X034307Y-002126
X036847Y-002126
X039387Y-002126
X041927Y-002126
X044467Y-002126
T05
X004445Y-049530
X006985Y-049530
X009525Y-049530
X012065Y-049530
X004445Y-044450
X006985Y-044450
X009525Y-044450
X012065Y-044450
X004445Y-039370
X006985Y-039370
X009525Y-039370
X012065Y-039370
X009525Y-030480
X006985Y-030480
X009525Y-058420
X006985Y-058420
X009525Y-066675
X006985Y-066675
X016510Y-022860
X016510Y-025400
X016510Y-027940
X016510Y-030480
X016510Y-033020
X016510Y-035560
X016510Y-038100
X016510Y-040640
X016510Y-043180
X016510Y-045720
X016510Y-048260
X016510Y-050800
X016510Y-053340
X016510Y-055880
X016510Y-058420
X053340Y-022860
X053340Y-025400
X053340Y-027940
X053340Y-030480
X053340Y-033020
X053340Y-035560
X053340Y-038100
X053340Y-040640
X053340Y-043180
X053340Y-045720
X053340Y-048260
X053340Y-050800
X053340Y-053340
X053340Y-055880
X053340Y-058420
M30
