G04 Layer: BottomLayer*
G04 EasyEDA v6.5.47, 2024-09-27 13:25:38*
G04 cb8a5c33274e4434a5d5d060cedbf222,e87ba6ffdfb0417d91de07616a749205,10*
G04 Gerber Generator version 0.2*
G04 Scale: 100 percent, Rotated: No, Reflected: No *
G04 Dimensions in millimeters *
G04 leading zeros omitted , absolute positions ,4 integer and 5 decimal *
%FSLAX45Y45*%
%MOMM*%

%AMMACRO1*21,1,$1,$2,0,0,$3*%
%ADD10C,0.3000*%
%ADD11MACRO1,1.524X1.524X0.0000*%
%ADD12C,1.5240*%
%ADD13R,1.8000X2.2000*%
%ADD14O,1.7999964X2.1999956000000003*%
%ADD15R,1.6510X1.6510*%
%ADD16C,1.6510*%
%ADD17C,0.6000*%

%LPD*%
D10*
X2727502Y-1024661D02*
G01*
X2033752Y-330911D01*
X2033752Y-151079D01*
X1973834Y-91160D01*
X1591513Y-91160D01*
X1525752Y-156921D01*
X1525752Y-677900D01*
X1143000Y-1060653D01*
X1143000Y-1405001D01*
X4759502Y-1553590D02*
G01*
X3256432Y-1553590D01*
X2727502Y-1024661D01*
X5334000Y-2540000D02*
G01*
X4872507Y-2540000D01*
X4872507Y-2540000D02*
G01*
X3417392Y-2540000D01*
X1766366Y-888974D01*
X1650161Y-744905D02*
G01*
X1691081Y-785825D01*
X1691081Y-931773D01*
X3553307Y-2794000D01*
X4872507Y-2794000D01*
X4872507Y-2794000D02*
G01*
X5334000Y-2794000D01*
X4584827Y-2412771D02*
G01*
X4006773Y-2412771D01*
X1906752Y-312750D01*
X1906752Y-212547D01*
X5334000Y-3302000D02*
G01*
X4872507Y-3302000D01*
X4872507Y-3556000D02*
G01*
X3699306Y-3556000D01*
X3082543Y-2939237D01*
X5334000Y-3556000D02*
G01*
X4872507Y-3556000D01*
X1651000Y-2285974D02*
G01*
X2112467Y-2285974D01*
X2112492Y-2286000D01*
X1651000Y-2539974D02*
G01*
X2112467Y-2539974D01*
X2112492Y-2540000D01*
X1651000Y-2793974D02*
G01*
X2112467Y-2793974D01*
X2112492Y-2794000D01*
X1651000Y-3047974D02*
G01*
X2112467Y-3047974D01*
X2112492Y-3048000D01*
X1651000Y-3301974D02*
G01*
X2112467Y-3301974D01*
X2112492Y-3302000D01*
X1651000Y-3555974D02*
G01*
X2112467Y-3555974D01*
X2112492Y-3556000D01*
X1651000Y-3809974D02*
G01*
X2112467Y-3809974D01*
X2112492Y-3810000D01*
X1651000Y-4063974D02*
G01*
X2112467Y-4063974D01*
X2112492Y-4064000D01*
X1651000Y-4317974D02*
G01*
X2112467Y-4317974D01*
X2112492Y-4318000D01*
X473481Y-4953000D02*
G01*
X473481Y-4697603D01*
X585292Y-4585792D01*
X952500Y-5842000D02*
G01*
X952500Y-5432018D01*
X473481Y-4953000D01*
X473481Y-4953000D02*
G01*
X444500Y-4953000D01*
X585292Y-4585792D02*
G01*
X1637182Y-4585792D01*
X1651000Y-4571974D01*
X444500Y-4445000D02*
G01*
X585292Y-4585792D01*
X1143000Y-2404998D02*
G01*
X1007948Y-2404998D01*
X952500Y-3048000D02*
G01*
X952500Y-2460447D01*
X1007948Y-2404998D01*
X1651000Y-4571974D02*
G01*
X2112467Y-4571974D01*
X2112492Y-4572000D01*
X698500Y-4953000D02*
G01*
X841298Y-4810201D01*
X1635226Y-4810201D01*
X1651000Y-4825974D01*
X1651000Y-4825974D02*
G01*
X2112467Y-4825974D01*
X2112492Y-4826000D01*
X1651000Y-5079974D02*
G01*
X2112467Y-5079974D01*
X2112492Y-5080000D01*
X1651000Y-5333974D02*
G01*
X2112467Y-5333974D01*
X2112492Y-5334000D01*
X1651000Y-5587974D02*
G01*
X2112467Y-5587974D01*
X2112492Y-5588000D01*
X698500Y-6667500D02*
G01*
X1524025Y-5841974D01*
X1651000Y-5841974D01*
X1651000Y-5841974D02*
G01*
X2112467Y-5841974D01*
X2112492Y-5842000D01*
X5334000Y-5842000D02*
G01*
X4872507Y-5842000D01*
X5334000Y-5588000D02*
G01*
X4872507Y-5588000D01*
X5334000Y-5334000D02*
G01*
X4872507Y-5334000D01*
X5334000Y-5080000D02*
G01*
X4872507Y-5080000D01*
X1652752Y-212547D02*
G01*
X1652752Y-636015D01*
X1575003Y-713765D01*
X1575003Y-776046D01*
X1619580Y-820623D01*
X1619605Y-820623D01*
X1619605Y-1582597D01*
X4863007Y-4826000D01*
X4872507Y-4826000D01*
X5334000Y-4826000D02*
G01*
X4872507Y-4826000D01*
X3938752Y-212547D02*
G01*
X3807536Y-81330D01*
X2545968Y-81330D01*
X2414752Y-212547D01*
X5334000Y-4572000D02*
G01*
X4872507Y-4572000D01*
X5334000Y-4318000D02*
G01*
X4872507Y-4318000D01*
X5334000Y-4064000D02*
G01*
X4872507Y-4064000D01*
X5334000Y-3810000D02*
G01*
X4872507Y-3810000D01*
X5334000Y-3048000D02*
G01*
X5465902Y-2916097D01*
X5465902Y-2147595D01*
X3677183Y-358876D01*
X2307081Y-358876D01*
X2160752Y-212547D01*
X5334000Y-3048000D02*
G01*
X4872507Y-3048000D01*
X5334000Y-2286000D02*
G01*
X4872507Y-2286000D01*
X1206500Y-3937000D02*
G01*
X1206500Y-4445000D01*
D11*
G01*
X1144722Y-212554D03*
D12*
G01*
X1398752Y-212547D03*
G01*
X1652752Y-212547D03*
G01*
X1906752Y-212547D03*
G01*
X2160752Y-212547D03*
G01*
X2414752Y-212547D03*
G01*
X2668752Y-212547D03*
G01*
X2922752Y-212547D03*
G01*
X3176752Y-212547D03*
G01*
X3430752Y-212547D03*
G01*
X3684752Y-212547D03*
G01*
X3938752Y-212547D03*
G01*
X4192752Y-212547D03*
G01*
X4446752Y-212547D03*
G01*
X2112492Y-2286000D03*
G01*
X2112492Y-2540000D03*
G01*
X2112492Y-2794000D03*
G01*
X2112492Y-3048000D03*
G01*
X2112492Y-3302000D03*
G01*
X2112492Y-3556000D03*
G01*
X2112492Y-3810000D03*
G01*
X2112492Y-4064000D03*
G01*
X2112492Y-4318000D03*
G01*
X2112492Y-4572000D03*
G01*
X2112492Y-4826000D03*
G01*
X2112492Y-5080000D03*
G01*
X2112492Y-5334000D03*
G01*
X2112492Y-5588000D03*
G01*
X2112492Y-5842000D03*
G01*
X4872507Y-5842000D03*
G01*
X4872507Y-5588000D03*
G01*
X4872507Y-5334000D03*
G01*
X4872507Y-5080000D03*
G01*
X4872507Y-4826000D03*
G01*
X4872507Y-4572000D03*
G01*
X4872507Y-4318000D03*
G01*
X4872507Y-4064000D03*
G01*
X4872507Y-3810000D03*
G01*
X4872507Y-3556000D03*
G01*
X4872507Y-3302000D03*
G01*
X4872507Y-3048000D03*
G01*
X4872507Y-2794000D03*
G01*
X4872507Y-2540000D03*
G01*
X4872507Y-2286000D03*
D13*
G01*
X571500Y-2404998D03*
D14*
G01*
X571500Y-1405001D03*
D13*
G01*
X1143000Y-2404998D03*
D14*
G01*
X1143000Y-1405001D03*
D15*
G01*
X444500Y-4953000D03*
D16*
G01*
X698500Y-4953000D03*
G01*
X952500Y-4953000D03*
G01*
X1206500Y-4953000D03*
D15*
G01*
X444500Y-4445000D03*
D16*
G01*
X698500Y-4445000D03*
G01*
X952500Y-4445000D03*
G01*
X1206500Y-4445000D03*
D15*
G01*
X444500Y-3937000D03*
D16*
G01*
X698500Y-3937000D03*
G01*
X952500Y-3937000D03*
G01*
X1206500Y-3937000D03*
D15*
G01*
X952500Y-3048000D03*
D16*
G01*
X698500Y-3048000D03*
D15*
G01*
X952500Y-5842000D03*
D16*
G01*
X698500Y-5842000D03*
D15*
G01*
X952500Y-6667500D03*
D16*
G01*
X698500Y-6667500D03*
D15*
G01*
X1651000Y-2286000D03*
D16*
G01*
X1651000Y-2539974D03*
G01*
X1651000Y-2793974D03*
G01*
X1651000Y-3047974D03*
G01*
X1651000Y-3301974D03*
G01*
X1651000Y-3555974D03*
G01*
X1651000Y-3809974D03*
G01*
X1651000Y-4063974D03*
G01*
X1651000Y-4317974D03*
G01*
X1651000Y-4571974D03*
G01*
X1651000Y-4825974D03*
G01*
X1651000Y-5079974D03*
G01*
X1651000Y-5333974D03*
G01*
X1651000Y-5587974D03*
G01*
X1651000Y-5841974D03*
D15*
G01*
X5334000Y-2286000D03*
D16*
G01*
X5334000Y-2540000D03*
G01*
X5334000Y-2794000D03*
G01*
X5334000Y-3048000D03*
G01*
X5334000Y-3302000D03*
G01*
X5334000Y-3556000D03*
G01*
X5334000Y-3810000D03*
G01*
X5334000Y-4064000D03*
G01*
X5334000Y-4318000D03*
G01*
X5334000Y-4572000D03*
G01*
X5334000Y-4826000D03*
G01*
X5334000Y-5080000D03*
G01*
X5334000Y-5334000D03*
G01*
X5334000Y-5588000D03*
G01*
X5334000Y-5842000D03*
D17*
G01*
X2727502Y-1024661D03*
G01*
X4759502Y-1553590D03*
G01*
X1766366Y-888974D03*
G01*
X1650161Y-744905D03*
G01*
X4584827Y-2412771D03*
G01*
X3082543Y-2939237D03*
M02*
