G04 Layer: BottomSilkscreenLayer*
G04 EasyEDA v6.5.47, 2024-09-27 13:25:38*
G04 cb8a5c33274e4434a5d5d060cedbf222,e87ba6ffdfb0417d91de07616a749205,10*
G04 Gerber Generator version 0.2*
G04 Scale: 100 percent, Rotated: No, Reflected: No *
G04 Dimensions in millimeters *
G04 leading zeros omitted , absolute positions ,4 integer and 5 decimal *
%FSLAX45Y45*%
%MOMM*%

%ADD10C,0.2032*%
%ADD11C,0.2540*%

%LPD*%
D10*
X4179999Y-1086797D02*
G01*
X4179999Y-1201351D01*
X4218099Y-1086797D02*
G01*
X4141899Y-1086797D01*
X4073065Y-1086797D02*
G01*
X4083984Y-1092385D01*
X4094909Y-1103307D01*
X4100243Y-1114229D01*
X4105831Y-1130485D01*
X4105831Y-1157917D01*
X4100243Y-1174173D01*
X4094909Y-1185095D01*
X4083984Y-1196017D01*
X4073065Y-1201351D01*
X4051218Y-1201351D01*
X4040299Y-1196017D01*
X4029377Y-1185095D01*
X4024043Y-1174173D01*
X4018452Y-1157917D01*
X4018452Y-1130485D01*
X4024043Y-1114229D01*
X4029377Y-1103307D01*
X4040299Y-1092385D01*
X4051218Y-1086797D01*
X4073065Y-1086797D01*
X3982384Y-1086797D02*
G01*
X3982384Y-1168839D01*
X3977050Y-1185095D01*
X3966131Y-1196017D01*
X3949875Y-1201351D01*
X3938950Y-1201351D01*
X3922443Y-1196017D01*
X3911518Y-1185095D01*
X3906184Y-1168839D01*
X3906184Y-1086797D01*
X3788331Y-1114229D02*
G01*
X3793665Y-1103307D01*
X3804584Y-1092385D01*
X3815509Y-1086797D01*
X3837350Y-1086797D01*
X3848275Y-1092385D01*
X3859197Y-1103307D01*
X3864785Y-1114229D01*
X3870119Y-1130485D01*
X3870119Y-1157917D01*
X3864785Y-1174173D01*
X3859197Y-1185095D01*
X3848275Y-1196017D01*
X3837350Y-1201351D01*
X3815509Y-1201351D01*
X3804584Y-1196017D01*
X3793665Y-1185095D01*
X3788331Y-1174173D01*
X3752263Y-1086797D02*
G01*
X3752263Y-1201351D01*
X3676063Y-1086797D02*
G01*
X3676063Y-1201351D01*
X3752263Y-1141407D02*
G01*
X3676063Y-1141407D01*
X1335704Y-505815D02*
G01*
X1326560Y-501243D01*
X1317416Y-492099D01*
X1313098Y-482955D01*
X1313098Y-464921D01*
X1317416Y-455777D01*
X1326560Y-446633D01*
X1335704Y-442061D01*
X1349420Y-437489D01*
X1372026Y-437489D01*
X1385742Y-442061D01*
X1394886Y-446633D01*
X1404030Y-455777D01*
X1408348Y-464921D01*
X1408348Y-482955D01*
X1404030Y-492099D01*
X1394886Y-501243D01*
X1385742Y-505815D01*
X1372026Y-505815D01*
X1372026Y-482955D02*
G01*
X1372026Y-505815D01*
X1313098Y-535787D02*
G01*
X1408348Y-535787D01*
X1313098Y-535787D02*
G01*
X1408348Y-599287D01*
X1313098Y-599287D02*
G01*
X1408348Y-599287D01*
X1313098Y-629513D02*
G01*
X1408348Y-629513D01*
X1313098Y-629513D02*
G01*
X1313098Y-661263D01*
X1317416Y-674979D01*
X1326560Y-683869D01*
X1335704Y-688441D01*
X1349420Y-693013D01*
X1372026Y-693013D01*
X1385742Y-688441D01*
X1394886Y-683869D01*
X1404030Y-674979D01*
X1408348Y-661263D01*
X1408348Y-629513D01*
X1610451Y-505815D02*
G01*
X1601307Y-501243D01*
X1592417Y-492099D01*
X1587845Y-482955D01*
X1587845Y-464921D01*
X1592417Y-455777D01*
X1601307Y-446633D01*
X1610451Y-442061D01*
X1624167Y-437489D01*
X1646773Y-437489D01*
X1660489Y-442061D01*
X1669633Y-446633D01*
X1678777Y-455777D01*
X1683349Y-464921D01*
X1683349Y-482955D01*
X1678777Y-492099D01*
X1669633Y-501243D01*
X1660489Y-505815D01*
X1601307Y-599287D02*
G01*
X1592417Y-590143D01*
X1587845Y-576681D01*
X1587845Y-558393D01*
X1592417Y-544931D01*
X1601307Y-535787D01*
X1610451Y-535787D01*
X1619595Y-540359D01*
X1624167Y-544931D01*
X1628739Y-553821D01*
X1637883Y-581253D01*
X1642455Y-590143D01*
X1646773Y-594715D01*
X1655917Y-599287D01*
X1669633Y-599287D01*
X1678777Y-590143D01*
X1683349Y-576681D01*
X1683349Y-558393D01*
X1678777Y-544931D01*
X1669633Y-535787D01*
X1078727Y-437565D02*
G01*
X1174231Y-473887D01*
X1078727Y-510209D02*
G01*
X1174231Y-473887D01*
X1101587Y-608507D02*
G01*
X1092443Y-603935D01*
X1083299Y-594791D01*
X1078727Y-585647D01*
X1078727Y-567359D01*
X1083299Y-558469D01*
X1092443Y-549325D01*
X1101587Y-544753D01*
X1115049Y-540181D01*
X1137909Y-540181D01*
X1151625Y-544753D01*
X1160515Y-549325D01*
X1169659Y-558469D01*
X1174231Y-567359D01*
X1174231Y-585647D01*
X1169659Y-594791D01*
X1160515Y-603935D01*
X1151625Y-608507D01*
X1101587Y-706551D02*
G01*
X1092443Y-701979D01*
X1083299Y-692835D01*
X1078727Y-683945D01*
X1078727Y-665657D01*
X1083299Y-656513D01*
X1092443Y-647369D01*
X1101587Y-643051D01*
X1115049Y-638479D01*
X1137909Y-638479D01*
X1151625Y-643051D01*
X1160515Y-647369D01*
X1169659Y-656513D01*
X1174231Y-665657D01*
X1174231Y-683945D01*
X1169659Y-692835D01*
X1160515Y-701979D01*
X1151625Y-706551D01*
X1837839Y-437489D02*
G01*
X1933343Y-437489D01*
X1837839Y-437489D02*
G01*
X1837839Y-478383D01*
X1842411Y-492099D01*
X1846983Y-496671D01*
X1856127Y-500989D01*
X1865017Y-500989D01*
X1874161Y-496671D01*
X1878733Y-492099D01*
X1883305Y-478383D01*
X1883305Y-437489D01*
X1883305Y-469239D02*
G01*
X1933343Y-500989D01*
X1837839Y-531215D02*
G01*
X1933343Y-531215D01*
X1837839Y-531215D02*
G01*
X1837839Y-590143D01*
X1883305Y-531215D02*
G01*
X1883305Y-567537D01*
X1933343Y-531215D02*
G01*
X1933343Y-590143D01*
X1851555Y-683869D02*
G01*
X1842411Y-674725D01*
X1837839Y-661009D01*
X1837839Y-642975D01*
X1842411Y-629259D01*
X1851555Y-620115D01*
X1860699Y-620115D01*
X1869589Y-624687D01*
X1874161Y-629259D01*
X1878733Y-638403D01*
X1887877Y-665581D01*
X1892449Y-674725D01*
X1897021Y-679297D01*
X1906165Y-683869D01*
X1919627Y-683869D01*
X1928771Y-674725D01*
X1933343Y-661009D01*
X1933343Y-642975D01*
X1928771Y-629259D01*
X1919627Y-620115D01*
X1837839Y-713841D02*
G01*
X1933343Y-713841D01*
X1837839Y-713841D02*
G01*
X1837839Y-773023D01*
X1883305Y-713841D02*
G01*
X1883305Y-750163D01*
X1933343Y-713841D02*
G01*
X1933343Y-773023D01*
X1837839Y-834745D02*
G01*
X1933343Y-834745D01*
X1837839Y-802995D02*
G01*
X1837839Y-866495D01*
X2106091Y-437484D02*
G01*
X2201595Y-437484D01*
X2106091Y-437484D02*
G01*
X2106091Y-469234D01*
X2110663Y-482950D01*
X2119807Y-491840D01*
X2128949Y-496412D01*
X2142413Y-500984D01*
X2165273Y-500984D01*
X2178989Y-496412D01*
X2187879Y-491840D01*
X2197023Y-482950D01*
X2201595Y-469234D01*
X2201595Y-437484D01*
X2088057Y-612744D02*
G01*
X2233345Y-530956D01*
X2128949Y-711042D02*
G01*
X2119807Y-706470D01*
X2110663Y-697326D01*
X2106091Y-688436D01*
X2106091Y-670148D01*
X2110663Y-661004D01*
X2119807Y-651860D01*
X2128949Y-647288D01*
X2142413Y-642970D01*
X2165273Y-642970D01*
X2178989Y-647288D01*
X2187879Y-651860D01*
X2197023Y-661004D01*
X2201595Y-670148D01*
X2201595Y-688436D01*
X2197023Y-697326D01*
X2187879Y-706470D01*
X2178989Y-711042D01*
X2376550Y-501238D02*
G01*
X2367406Y-492094D01*
X2363088Y-478378D01*
X2363088Y-460344D01*
X2367406Y-446628D01*
X2376550Y-437484D01*
X2385692Y-437484D01*
X2394838Y-442056D01*
X2399408Y-446628D01*
X2403983Y-455772D01*
X2412872Y-482950D01*
X2417442Y-492094D01*
X2422016Y-496666D01*
X2431158Y-501238D01*
X2444874Y-501238D01*
X2454020Y-492094D01*
X2458338Y-478378D01*
X2458338Y-460344D01*
X2454020Y-446628D01*
X2444874Y-437484D01*
X2363088Y-531210D02*
G01*
X2458338Y-531210D01*
X2363088Y-531210D02*
G01*
X2363088Y-562960D01*
X2367406Y-576676D01*
X2376550Y-585820D01*
X2385692Y-590392D01*
X2399408Y-594964D01*
X2422016Y-594964D01*
X2435733Y-590392D01*
X2444874Y-585820D01*
X2454020Y-576676D01*
X2458338Y-562960D01*
X2458338Y-531210D01*
X2363088Y-624936D02*
G01*
X2458338Y-624936D01*
X2626558Y-501241D02*
G01*
X2617416Y-492097D01*
X2612844Y-478381D01*
X2612844Y-460347D01*
X2617416Y-446631D01*
X2626558Y-437487D01*
X2635450Y-437487D01*
X2644594Y-442059D01*
X2649166Y-446631D01*
X2653738Y-455775D01*
X2662882Y-482953D01*
X2667454Y-492097D01*
X2672024Y-496669D01*
X2680916Y-501241D01*
X2694632Y-501241D01*
X2703774Y-492097D01*
X2708348Y-478381D01*
X2708348Y-460347D01*
X2703774Y-446631D01*
X2694632Y-437487D01*
X2635450Y-599285D02*
G01*
X2626558Y-594713D01*
X2617416Y-585823D01*
X2612844Y-576679D01*
X2612844Y-558391D01*
X2617416Y-549247D01*
X2626558Y-540357D01*
X2635450Y-535785D01*
X2649166Y-531213D01*
X2672024Y-531213D01*
X2685488Y-535785D01*
X2694632Y-540357D01*
X2703774Y-549247D01*
X2708348Y-558391D01*
X2708348Y-576679D01*
X2703774Y-585823D01*
X2694632Y-594713D01*
X2685488Y-599285D01*
X2612844Y-629257D02*
G01*
X2708348Y-629257D01*
X2612844Y-693011D02*
G01*
X2676598Y-629257D01*
X2653738Y-652117D02*
G01*
X2708348Y-693011D01*
X2862839Y-437484D02*
G01*
X2958343Y-437484D01*
X2958343Y-437484D02*
G01*
X2958343Y-492094D01*
X2862839Y-522066D02*
G01*
X2958343Y-522066D01*
X2862839Y-522066D02*
G01*
X2862839Y-581248D01*
X2908305Y-522066D02*
G01*
X2908305Y-558388D01*
X2958343Y-522066D02*
G01*
X2958343Y-581248D01*
X2862839Y-611220D02*
G01*
X2958343Y-611220D01*
X2862839Y-611220D02*
G01*
X2862839Y-642970D01*
X2867411Y-656686D01*
X2876555Y-665576D01*
X2885696Y-670148D01*
X2899161Y-674720D01*
X2922021Y-674720D01*
X2935737Y-670148D01*
X2944627Y-665576D01*
X2953771Y-656686D01*
X2958343Y-642970D01*
X2958343Y-611220D01*
X3126552Y-501241D02*
G01*
X3117410Y-492097D01*
X3112838Y-478381D01*
X3112838Y-460347D01*
X3117410Y-446631D01*
X3126552Y-437487D01*
X3135698Y-437487D01*
X3144842Y-442059D01*
X3149160Y-446631D01*
X3153732Y-455775D01*
X3162876Y-482953D01*
X3167448Y-492097D01*
X3172018Y-496669D01*
X3181164Y-501241D01*
X3194626Y-501241D01*
X3203768Y-492097D01*
X3208342Y-478381D01*
X3208342Y-460347D01*
X3203768Y-446631D01*
X3194626Y-437487D01*
X3112838Y-531213D02*
G01*
X3208342Y-531213D01*
X3112838Y-531213D02*
G01*
X3112838Y-562963D01*
X3117410Y-576679D01*
X3126552Y-585569D01*
X3135698Y-590141D01*
X3149160Y-594713D01*
X3172018Y-594713D01*
X3185734Y-590141D01*
X3194626Y-585569D01*
X3203768Y-576679D01*
X3208342Y-562963D01*
X3208342Y-531213D01*
X3112838Y-652117D02*
G01*
X3117410Y-642973D01*
X3126552Y-633829D01*
X3135698Y-629257D01*
X3149160Y-624685D01*
X3172018Y-624685D01*
X3185734Y-629257D01*
X3194626Y-633829D01*
X3203768Y-642973D01*
X3208342Y-652117D01*
X3208342Y-670151D01*
X3203768Y-679295D01*
X3194626Y-688439D01*
X3185734Y-693011D01*
X3172018Y-697583D01*
X3149160Y-697583D01*
X3135698Y-693011D01*
X3126552Y-688439D01*
X3117410Y-679295D01*
X3112838Y-670151D01*
X3112838Y-652117D01*
X3356094Y-444238D02*
G01*
X3451344Y-444238D01*
X3356094Y-412488D02*
G01*
X3356094Y-476242D01*
X3483348Y-506214D02*
G01*
X3483348Y-588002D01*
X3378700Y-686046D02*
G01*
X3369553Y-681474D01*
X3360412Y-672584D01*
X3356094Y-663440D01*
X3356094Y-645152D01*
X3360412Y-636262D01*
X3369553Y-627118D01*
X3378700Y-622546D01*
X3392416Y-617974D01*
X3415019Y-617974D01*
X3428735Y-622546D01*
X3437882Y-627118D01*
X3446769Y-636262D01*
X3451344Y-645152D01*
X3451344Y-663440D01*
X3446769Y-672584D01*
X3437882Y-681474D01*
X3428735Y-686046D01*
X3356094Y-716018D02*
G01*
X3451344Y-716018D01*
X3451344Y-716018D02*
G01*
X3451344Y-770628D01*
X3356094Y-800600D02*
G01*
X3451344Y-800600D01*
X3356094Y-864354D02*
G01*
X3419594Y-800600D01*
X3396985Y-823460D02*
G01*
X3451344Y-864354D01*
X3606091Y-444238D02*
G01*
X3701592Y-444238D01*
X3606091Y-412488D02*
G01*
X3606091Y-475988D01*
X3733342Y-505960D02*
G01*
X3733342Y-588002D01*
X3628697Y-686046D02*
G01*
X3619807Y-681474D01*
X3610663Y-672330D01*
X3606091Y-663440D01*
X3606091Y-645152D01*
X3610663Y-636008D01*
X3619807Y-627118D01*
X3628697Y-622546D01*
X3642413Y-617974D01*
X3665019Y-617974D01*
X3678735Y-622546D01*
X3687879Y-627118D01*
X3697023Y-636008D01*
X3701592Y-645152D01*
X3701592Y-663440D01*
X3697023Y-672330D01*
X3687879Y-681474D01*
X3678735Y-686046D01*
X3619807Y-779772D02*
G01*
X3610663Y-770628D01*
X3606091Y-756912D01*
X3606091Y-738878D01*
X3610663Y-725162D01*
X3619807Y-716018D01*
X3628697Y-716018D01*
X3637841Y-720590D01*
X3642413Y-725162D01*
X3646985Y-734306D01*
X3656129Y-761484D01*
X3660701Y-770628D01*
X3665019Y-775200D01*
X3674163Y-779772D01*
X3687879Y-779772D01*
X3697023Y-770628D01*
X3701592Y-756912D01*
X3701592Y-738878D01*
X3697023Y-725162D01*
X3687879Y-716018D01*
X3881086Y-444235D02*
G01*
X3976590Y-444235D01*
X3881086Y-412485D02*
G01*
X3881086Y-475985D01*
X4008340Y-505957D02*
G01*
X4008340Y-587745D01*
X3881086Y-617717D02*
G01*
X3976590Y-617717D01*
X3881086Y-617717D02*
G01*
X3881086Y-649721D01*
X3885658Y-663183D01*
X3894802Y-672327D01*
X3903946Y-676899D01*
X3917408Y-681471D01*
X3940268Y-681471D01*
X3953730Y-676899D01*
X3962874Y-672327D01*
X3972018Y-663183D01*
X3976590Y-649721D01*
X3976590Y-617717D01*
X3881086Y-711443D02*
G01*
X3976590Y-711443D01*
X3881086Y-741415D02*
G01*
X3976590Y-741415D01*
X3881086Y-741415D02*
G01*
X3976590Y-805169D01*
X3881086Y-805169D02*
G01*
X3976590Y-805169D01*
X4131089Y-444238D02*
G01*
X4226593Y-444238D01*
X4131089Y-412488D02*
G01*
X4131089Y-475988D01*
X4258343Y-506214D02*
G01*
X4258343Y-588002D01*
X4131089Y-617974D02*
G01*
X4226593Y-617974D01*
X4131089Y-617974D02*
G01*
X4131089Y-649724D01*
X4135661Y-663440D01*
X4144805Y-672584D01*
X4153695Y-676902D01*
X4167411Y-681474D01*
X4190268Y-681474D01*
X4203733Y-676902D01*
X4212877Y-672584D01*
X4222018Y-663440D01*
X4226593Y-649724D01*
X4226593Y-617974D01*
X4131089Y-738878D02*
G01*
X4135661Y-729734D01*
X4144805Y-720590D01*
X4153695Y-716018D01*
X4167411Y-711446D01*
X4190268Y-711446D01*
X4203733Y-716018D01*
X4212877Y-720590D01*
X4222018Y-729734D01*
X4226593Y-738878D01*
X4226593Y-756912D01*
X4222018Y-766056D01*
X4212877Y-775200D01*
X4203733Y-779772D01*
X4190268Y-784344D01*
X4167411Y-784344D01*
X4153695Y-779772D01*
X4144805Y-775200D01*
X4135661Y-766056D01*
X4131089Y-756912D01*
X4131089Y-738878D01*
X4381088Y-444238D02*
G01*
X4476592Y-444238D01*
X4381088Y-412488D02*
G01*
X4381088Y-475988D01*
X4508342Y-505960D02*
G01*
X4508342Y-587748D01*
X4381088Y-617974D02*
G01*
X4476592Y-617974D01*
X4381088Y-647946D02*
G01*
X4476592Y-647946D01*
X4381088Y-647946D02*
G01*
X4381088Y-688840D01*
X4385660Y-702302D01*
X4390232Y-706874D01*
X4399376Y-711446D01*
X4408520Y-711446D01*
X4417410Y-706874D01*
X4421982Y-702302D01*
X4426554Y-688840D01*
X4426554Y-647946D01*
X4426554Y-679696D02*
G01*
X4476592Y-711446D01*
X4381088Y-768850D02*
G01*
X4385660Y-759706D01*
X4394804Y-750562D01*
X4403948Y-745990D01*
X4417410Y-741418D01*
X4440270Y-741418D01*
X4453986Y-745990D01*
X4462876Y-750562D01*
X4472020Y-759706D01*
X4476592Y-768850D01*
X4476592Y-786884D01*
X4472020Y-796028D01*
X4462876Y-805172D01*
X4453986Y-809744D01*
X4440270Y-814316D01*
X4417410Y-814316D01*
X4403948Y-809744D01*
X4394804Y-805172D01*
X4385660Y-796028D01*
X4381088Y-786884D01*
X4381088Y-768850D01*
X4458304Y-782312D02*
G01*
X4485736Y-809744D01*
X2490939Y-1081999D02*
G01*
X2490939Y-1196553D01*
X2490939Y-1081999D02*
G01*
X2452839Y-1081999D01*
X2436329Y-1087587D01*
X2425407Y-1098509D01*
X2420073Y-1109431D01*
X2414483Y-1125687D01*
X2414483Y-1152865D01*
X2420073Y-1169375D01*
X2425407Y-1180297D01*
X2436329Y-1191219D01*
X2452839Y-1196553D01*
X2490939Y-1196553D01*
X2378671Y-1081999D02*
G01*
X2378671Y-1196553D01*
X2266149Y-1098509D02*
G01*
X2277071Y-1087587D01*
X2293581Y-1081999D01*
X2315425Y-1081999D01*
X2331681Y-1087587D01*
X2342601Y-1098509D01*
X2342601Y-1109431D01*
X2337015Y-1120353D01*
X2331681Y-1125687D01*
X2320759Y-1131275D01*
X2287993Y-1141943D01*
X2277071Y-1147531D01*
X2271737Y-1152865D01*
X2266149Y-1163787D01*
X2266149Y-1180297D01*
X2277071Y-1191219D01*
X2293581Y-1196553D01*
X2315425Y-1196553D01*
X2331681Y-1191219D01*
X2342601Y-1180297D01*
X2230333Y-1081999D02*
G01*
X2230333Y-1196553D01*
X2230333Y-1081999D02*
G01*
X2181059Y-1081999D01*
X2164801Y-1087587D01*
X2159215Y-1092921D01*
X2153881Y-1103843D01*
X2153881Y-1120353D01*
X2159215Y-1131275D01*
X2164801Y-1136609D01*
X2181059Y-1141943D01*
X2230333Y-1141943D01*
X2117813Y-1081999D02*
G01*
X2117813Y-1196553D01*
X2117813Y-1196553D02*
G01*
X2052281Y-1196553D01*
X1972779Y-1081999D02*
G01*
X2016465Y-1196553D01*
X1972779Y-1081999D02*
G01*
X1929091Y-1196553D01*
X1999957Y-1158453D02*
G01*
X1945599Y-1158453D01*
X1893023Y-1081999D02*
G01*
X1849589Y-1136609D01*
X1849589Y-1196553D01*
X1805901Y-1081999D02*
G01*
X1849589Y-1136609D01*
D11*
X4468108Y-1011826D02*
G01*
X4343143Y-1136792D01*
X4218139Y-1152357D01*
X3418067Y-1011826D02*
G01*
X3543043Y-1136792D01*
X3633939Y-1152357D01*
X3137623Y-1013673D02*
G01*
X3012655Y-1138641D01*
X2541739Y-1152357D01*
X1158450Y-1013673D02*
G01*
X1283428Y-1138641D01*
X1779739Y-1152357D01*
X1008344Y-87492D02*
G01*
X1008344Y-337492D01*
X4558347Y-337492D02*
G01*
X1008344Y-337492D01*
X4558428Y-337609D02*
G01*
X4558347Y-87492D01*
X1008344Y-87492D01*
M02*
