G04 Layer: TopSilkscreenLayer*
G04 EasyEDA v6.5.47, 2024-09-27 13:25:38*
G04 cb8a5c33274e4434a5d5d060cedbf222,e87ba6ffdfb0417d91de07616a749205,10*
G04 Gerber Generator version 0.2*
G04 Scale: 100 percent, Rotated: No, Reflected: No *
G04 Dimensions in millimeters *
G04 leading zeros omitted , absolute positions ,4 integer and 5 decimal *
%FSLAX45Y45*%
%MOMM*%

%ADD10C,0.1524*%
%ADD11C,0.2540*%
%ADD12C,0.1199*%

%LPD*%
D10*
X195071Y-5192280D02*
G01*
X190754Y-5183136D01*
X181610Y-5174246D01*
X172465Y-5169674D01*
X154178Y-5169674D01*
X145287Y-5174246D01*
X136144Y-5183136D01*
X131571Y-5192280D01*
X127000Y-5205996D01*
X127000Y-5228602D01*
X131571Y-5242318D01*
X136144Y-5251462D01*
X145287Y-5260606D01*
X154178Y-5264924D01*
X172465Y-5264924D01*
X181610Y-5260606D01*
X190754Y-5251462D01*
X195071Y-5242318D01*
X195071Y-5228602D01*
X172465Y-5228602D02*
G01*
X195071Y-5228602D01*
X225297Y-5169674D02*
G01*
X225297Y-5264924D01*
X225297Y-5169674D02*
G01*
X288797Y-5264924D01*
X288797Y-5169674D02*
G01*
X288797Y-5264924D01*
X318770Y-5169674D02*
G01*
X318770Y-5264924D01*
X318770Y-5169674D02*
G01*
X350520Y-5169674D01*
X364236Y-5174246D01*
X373379Y-5183136D01*
X377952Y-5192280D01*
X382523Y-5205996D01*
X382523Y-5228602D01*
X377952Y-5242318D01*
X373379Y-5251462D01*
X364236Y-5260606D01*
X350520Y-5264924D01*
X318770Y-5264924D01*
X491489Y-5169674D02*
G01*
X541528Y-5169674D01*
X514350Y-5205996D01*
X527812Y-5205996D01*
X536955Y-5210568D01*
X541528Y-5215140D01*
X546100Y-5228602D01*
X546100Y-5237746D01*
X541528Y-5251462D01*
X532384Y-5260606D01*
X518921Y-5264924D01*
X505205Y-5264924D01*
X491489Y-5260606D01*
X486918Y-5256034D01*
X482345Y-5246890D01*
X580644Y-5242318D02*
G01*
X576071Y-5246890D01*
X580644Y-5251462D01*
X585215Y-5246890D01*
X580644Y-5242318D01*
X624331Y-5169674D02*
G01*
X674370Y-5169674D01*
X646937Y-5205996D01*
X660654Y-5205996D01*
X669797Y-5210568D01*
X674370Y-5215140D01*
X678942Y-5228602D01*
X678942Y-5237746D01*
X674370Y-5251462D01*
X665226Y-5260606D01*
X651510Y-5264924D01*
X637794Y-5264924D01*
X624331Y-5260606D01*
X619760Y-5256034D01*
X615187Y-5246890D01*
X708913Y-5169674D02*
G01*
X745236Y-5264924D01*
X781557Y-5169674D02*
G01*
X745236Y-5264924D01*
X945134Y-5183136D02*
G01*
X935989Y-5174246D01*
X922528Y-5169674D01*
X904239Y-5169674D01*
X890523Y-5174246D01*
X881634Y-5183136D01*
X881634Y-5192280D01*
X886205Y-5201424D01*
X890523Y-5205996D01*
X899668Y-5210568D01*
X927100Y-5219458D01*
X935989Y-5224030D01*
X940562Y-5228602D01*
X945134Y-5237746D01*
X945134Y-5251462D01*
X935989Y-5260606D01*
X922528Y-5264924D01*
X904239Y-5264924D01*
X890523Y-5260606D01*
X881634Y-5251462D01*
X1043431Y-5192280D02*
G01*
X1038860Y-5183136D01*
X1029715Y-5174246D01*
X1020571Y-5169674D01*
X1002537Y-5169674D01*
X993394Y-5174246D01*
X984250Y-5183136D01*
X979678Y-5192280D01*
X975105Y-5205996D01*
X975105Y-5228602D01*
X979678Y-5242318D01*
X984250Y-5251462D01*
X993394Y-5260606D01*
X1002537Y-5264924D01*
X1020571Y-5264924D01*
X1029715Y-5260606D01*
X1038860Y-5251462D01*
X1043431Y-5242318D01*
X1073404Y-5169674D02*
G01*
X1073404Y-5264924D01*
X1073404Y-5264924D02*
G01*
X1128013Y-5264924D01*
X1291589Y-5183136D02*
G01*
X1282445Y-5174246D01*
X1268729Y-5169674D01*
X1250695Y-5169674D01*
X1236979Y-5174246D01*
X1227836Y-5183136D01*
X1227836Y-5192280D01*
X1232407Y-5201424D01*
X1236979Y-5205996D01*
X1246123Y-5210568D01*
X1273302Y-5219458D01*
X1282445Y-5224030D01*
X1287018Y-5228602D01*
X1291589Y-5237746D01*
X1291589Y-5251462D01*
X1282445Y-5260606D01*
X1268729Y-5264924D01*
X1250695Y-5264924D01*
X1236979Y-5260606D01*
X1227836Y-5251462D01*
X1321562Y-5169674D02*
G01*
X1321562Y-5264924D01*
X1321562Y-5169674D02*
G01*
X1353312Y-5169674D01*
X1367028Y-5174246D01*
X1376171Y-5183136D01*
X1380744Y-5192280D01*
X1385062Y-5205996D01*
X1385062Y-5228602D01*
X1380744Y-5242318D01*
X1376171Y-5251462D01*
X1367028Y-5260606D01*
X1353312Y-5264924D01*
X1321562Y-5264924D01*
X1451610Y-5169674D02*
G01*
X1415287Y-5264924D01*
X1451610Y-5169674D02*
G01*
X1487931Y-5264924D01*
X1428750Y-5233174D02*
G01*
X1474215Y-5233174D01*
X508000Y-3264664D02*
G01*
X544321Y-3359914D01*
X580644Y-3264664D02*
G01*
X544321Y-3359914D01*
X678942Y-3287270D02*
G01*
X674370Y-3278126D01*
X665226Y-3269236D01*
X656081Y-3264664D01*
X638047Y-3264664D01*
X628904Y-3269236D01*
X619760Y-3278126D01*
X615187Y-3287270D01*
X610615Y-3300986D01*
X610615Y-3323592D01*
X615187Y-3337308D01*
X619760Y-3346452D01*
X628904Y-3355596D01*
X638047Y-3359914D01*
X656081Y-3359914D01*
X665226Y-3355596D01*
X674370Y-3346452D01*
X678942Y-3337308D01*
X776986Y-3287270D02*
G01*
X772668Y-3278126D01*
X763523Y-3269236D01*
X754379Y-3264664D01*
X736092Y-3264664D01*
X727202Y-3269236D01*
X718057Y-3278126D01*
X713486Y-3287270D01*
X708913Y-3300986D01*
X708913Y-3323592D01*
X713486Y-3337308D01*
X718057Y-3346452D01*
X727202Y-3355596D01*
X736092Y-3359914D01*
X754379Y-3359914D01*
X763523Y-3355596D01*
X772668Y-3346452D01*
X776986Y-3337308D01*
X945387Y-3287270D02*
G01*
X940815Y-3278126D01*
X931671Y-3269236D01*
X922528Y-3264664D01*
X904239Y-3264664D01*
X895350Y-3269236D01*
X886205Y-3278126D01*
X881634Y-3287270D01*
X877062Y-3300986D01*
X877062Y-3323592D01*
X881634Y-3337308D01*
X886205Y-3346452D01*
X895350Y-3355596D01*
X904239Y-3359914D01*
X922528Y-3359914D01*
X931671Y-3355596D01*
X940815Y-3346452D01*
X945387Y-3337308D01*
X945387Y-3323592D01*
X922528Y-3323592D02*
G01*
X945387Y-3323592D01*
X975360Y-3264664D02*
G01*
X975360Y-3359914D01*
X975360Y-3264664D02*
G01*
X1038860Y-3359914D01*
X1038860Y-3264664D02*
G01*
X1038860Y-3359914D01*
X1068831Y-3264664D02*
G01*
X1068831Y-3359914D01*
X1068831Y-3264664D02*
G01*
X1100836Y-3264664D01*
X1114297Y-3269236D01*
X1123442Y-3278126D01*
X1128013Y-3287270D01*
X1132586Y-3300986D01*
X1132586Y-3323592D01*
X1128013Y-3337308D01*
X1123442Y-3346452D01*
X1114297Y-3355596D01*
X1100836Y-3359914D01*
X1068831Y-3359914D01*
X517144Y-6058654D02*
G01*
X567181Y-6058654D01*
X539750Y-6094976D01*
X553465Y-6094976D01*
X562610Y-6099548D01*
X567181Y-6104120D01*
X571754Y-6117582D01*
X571754Y-6126726D01*
X567181Y-6140442D01*
X558037Y-6149586D01*
X544321Y-6154158D01*
X530605Y-6154158D01*
X517144Y-6149586D01*
X512571Y-6145014D01*
X508000Y-6135870D01*
X606297Y-6131298D02*
G01*
X601726Y-6135870D01*
X606297Y-6140442D01*
X610615Y-6135870D01*
X606297Y-6131298D01*
X649731Y-6058654D02*
G01*
X699770Y-6058654D01*
X672592Y-6094976D01*
X686307Y-6094976D01*
X695197Y-6099548D01*
X699770Y-6104120D01*
X704342Y-6117582D01*
X704342Y-6126726D01*
X699770Y-6140442D01*
X690626Y-6149586D01*
X677163Y-6154158D01*
X663447Y-6154158D01*
X649731Y-6149586D01*
X645160Y-6145014D01*
X640842Y-6135870D01*
X734313Y-6058654D02*
G01*
X770636Y-6154158D01*
X807212Y-6058654D02*
G01*
X770636Y-6154158D01*
X975360Y-6081260D02*
G01*
X970787Y-6072116D01*
X961644Y-6063226D01*
X952500Y-6058654D01*
X934465Y-6058654D01*
X925321Y-6063226D01*
X916178Y-6072116D01*
X911605Y-6081260D01*
X907034Y-6094976D01*
X907034Y-6117582D01*
X911605Y-6131298D01*
X916178Y-6140442D01*
X925321Y-6149586D01*
X934465Y-6154158D01*
X952500Y-6154158D01*
X961644Y-6149586D01*
X970787Y-6140442D01*
X975360Y-6131298D01*
X975360Y-6117582D01*
X952500Y-6117582D02*
G01*
X975360Y-6117582D01*
X1005331Y-6058654D02*
G01*
X1005331Y-6154158D01*
X1005331Y-6058654D02*
G01*
X1068831Y-6154158D01*
X1068831Y-6058654D02*
G01*
X1068831Y-6154158D01*
X1098804Y-6058654D02*
G01*
X1098804Y-6154158D01*
X1098804Y-6058654D02*
G01*
X1130807Y-6058654D01*
X1144270Y-6063226D01*
X1153413Y-6072116D01*
X1157986Y-6081260D01*
X1162557Y-6094976D01*
X1162557Y-6117582D01*
X1157986Y-6131298D01*
X1153413Y-6140442D01*
X1144270Y-6149586D01*
X1130807Y-6154158D01*
X1098804Y-6154158D01*
X435610Y-6884151D02*
G01*
X390144Y-6884151D01*
X385571Y-6925045D01*
X390144Y-6920473D01*
X403605Y-6915901D01*
X417321Y-6915901D01*
X431037Y-6920473D01*
X440181Y-6929617D01*
X444754Y-6943079D01*
X444754Y-6952223D01*
X440181Y-6965939D01*
X431037Y-6975083D01*
X417321Y-6979655D01*
X403605Y-6979655D01*
X390144Y-6975083D01*
X385571Y-6970511D01*
X381000Y-6961367D01*
X479297Y-6956795D02*
G01*
X474726Y-6961367D01*
X479297Y-6965939D01*
X483615Y-6961367D01*
X479297Y-6956795D01*
X518160Y-6956795D02*
G01*
X513842Y-6961367D01*
X518160Y-6965939D01*
X522731Y-6961367D01*
X518160Y-6956795D01*
X557276Y-6956795D02*
G01*
X552704Y-6961367D01*
X557276Y-6965939D01*
X561847Y-6961367D01*
X557276Y-6956795D01*
X591820Y-6902185D02*
G01*
X600963Y-6897613D01*
X614679Y-6884151D01*
X614679Y-6979655D01*
X649223Y-6906757D02*
G01*
X649223Y-6902185D01*
X653795Y-6893041D01*
X658368Y-6888723D01*
X667257Y-6884151D01*
X685545Y-6884151D01*
X694689Y-6888723D01*
X699262Y-6893041D01*
X703834Y-6902185D01*
X703834Y-6911329D01*
X699262Y-6920473D01*
X690118Y-6934189D01*
X644652Y-6979655D01*
X708152Y-6979655D01*
X738378Y-6884151D02*
G01*
X774700Y-6979655D01*
X811021Y-6884151D02*
G01*
X774700Y-6979655D01*
X979170Y-6906757D02*
G01*
X974597Y-6897613D01*
X965454Y-6888723D01*
X956563Y-6884151D01*
X938276Y-6884151D01*
X929131Y-6888723D01*
X919987Y-6897613D01*
X915670Y-6906757D01*
X911097Y-6920473D01*
X911097Y-6943079D01*
X915670Y-6956795D01*
X919987Y-6965939D01*
X929131Y-6975083D01*
X938276Y-6979655D01*
X956563Y-6979655D01*
X965454Y-6975083D01*
X974597Y-6965939D01*
X979170Y-6956795D01*
X979170Y-6943079D01*
X956563Y-6943079D02*
G01*
X979170Y-6943079D01*
X1009142Y-6884151D02*
G01*
X1009142Y-6979655D01*
X1009142Y-6884151D02*
G01*
X1072895Y-6979655D01*
X1072895Y-6884151D02*
G01*
X1072895Y-6979655D01*
X1102868Y-6884151D02*
G01*
X1102868Y-6979655D01*
X1102868Y-6884151D02*
G01*
X1134618Y-6884151D01*
X1148334Y-6888723D01*
X1157478Y-6897613D01*
X1161795Y-6906757D01*
X1166368Y-6920473D01*
X1166368Y-6943079D01*
X1161795Y-6956795D01*
X1157478Y-6965939D01*
X1148334Y-6975083D01*
X1134618Y-6979655D01*
X1102868Y-6979655D01*
X2571750Y-1023873D02*
G01*
X2562606Y-1033018D01*
X2553715Y-1046734D01*
X2544572Y-1064768D01*
X2540000Y-1087628D01*
X2540000Y-1105662D01*
X2544572Y-1128521D01*
X2553715Y-1146555D01*
X2562606Y-1160271D01*
X2571750Y-1169415D01*
X2601722Y-1042162D02*
G01*
X2601722Y-1137665D01*
X2601722Y-1042162D02*
G01*
X2633725Y-1042162D01*
X2647188Y-1046734D01*
X2656331Y-1055623D01*
X2660904Y-1064768D01*
X2665475Y-1078484D01*
X2665475Y-1101089D01*
X2660904Y-1114805D01*
X2656331Y-1123950D01*
X2647188Y-1133094D01*
X2633725Y-1137665D01*
X2601722Y-1137665D01*
X2695447Y-1042162D02*
G01*
X2695447Y-1137665D01*
X2725420Y-1042162D02*
G01*
X2725420Y-1137665D01*
X2725420Y-1042162D02*
G01*
X2761741Y-1137665D01*
X2798063Y-1042162D02*
G01*
X2761741Y-1137665D01*
X2798063Y-1042162D02*
G01*
X2798063Y-1137665D01*
X2910077Y-1023873D02*
G01*
X2828290Y-1169415D01*
X2967227Y-1042162D02*
G01*
X2958084Y-1046734D01*
X2949193Y-1055623D01*
X2944622Y-1064768D01*
X2940050Y-1078484D01*
X2940050Y-1101089D01*
X2944622Y-1114805D01*
X2949193Y-1123950D01*
X2958084Y-1133094D01*
X2967227Y-1137665D01*
X2985515Y-1137665D01*
X2994659Y-1133094D01*
X3003550Y-1123950D01*
X3008122Y-1114805D01*
X3012693Y-1101089D01*
X3012693Y-1078484D01*
X3008122Y-1064768D01*
X3003550Y-1055623D01*
X2994659Y-1046734D01*
X2985515Y-1042162D01*
X2967227Y-1042162D01*
X3042665Y-1042162D02*
G01*
X3042665Y-1137665D01*
X3042665Y-1042162D02*
G01*
X3106420Y-1137665D01*
X3106420Y-1042162D02*
G01*
X3106420Y-1137665D01*
X3136391Y-1023873D02*
G01*
X3145536Y-1033018D01*
X3154425Y-1046734D01*
X3163570Y-1064768D01*
X3168141Y-1087628D01*
X3168141Y-1105662D01*
X3163570Y-1128521D01*
X3154425Y-1146555D01*
X3145536Y-1160271D01*
X3136391Y-1169415D01*
X476250Y-1023873D02*
G01*
X467105Y-1033018D01*
X458215Y-1046734D01*
X449071Y-1064768D01*
X444500Y-1087628D01*
X444500Y-1105662D01*
X449071Y-1128521D01*
X458215Y-1146555D01*
X467105Y-1160271D01*
X476250Y-1169415D01*
X506221Y-1042162D02*
G01*
X506221Y-1137665D01*
X540765Y-1064768D02*
G01*
X540765Y-1060195D01*
X545337Y-1051305D01*
X549910Y-1046734D01*
X559054Y-1042162D01*
X577342Y-1042162D01*
X586231Y-1046734D01*
X590804Y-1051305D01*
X595376Y-1060195D01*
X595376Y-1069339D01*
X590804Y-1078484D01*
X581660Y-1092200D01*
X536194Y-1137665D01*
X599947Y-1137665D01*
X698245Y-1064768D02*
G01*
X693673Y-1055623D01*
X684529Y-1046734D01*
X675386Y-1042162D01*
X657352Y-1042162D01*
X648207Y-1046734D01*
X639063Y-1055623D01*
X634492Y-1064768D01*
X629920Y-1078484D01*
X629920Y-1101089D01*
X634492Y-1114805D01*
X639063Y-1123950D01*
X648207Y-1133094D01*
X657352Y-1137665D01*
X675386Y-1137665D01*
X684529Y-1133094D01*
X693673Y-1123950D01*
X698245Y-1114805D01*
X810005Y-1023873D02*
G01*
X728218Y-1169415D01*
X839978Y-1042162D02*
G01*
X839978Y-1137665D01*
X839978Y-1042162D02*
G01*
X871728Y-1042162D01*
X885444Y-1046734D01*
X894587Y-1055623D01*
X899160Y-1064768D01*
X903478Y-1078484D01*
X903478Y-1101089D01*
X899160Y-1114805D01*
X894587Y-1123950D01*
X885444Y-1133094D01*
X871728Y-1137665D01*
X839978Y-1137665D01*
X933704Y-1042162D02*
G01*
X933704Y-1137665D01*
X963676Y-1042162D02*
G01*
X963676Y-1137665D01*
X963676Y-1042162D02*
G01*
X999997Y-1137665D01*
X1036320Y-1042162D02*
G01*
X999997Y-1137665D01*
X1036320Y-1042162D02*
G01*
X1036320Y-1137665D01*
X1066292Y-1023873D02*
G01*
X1075436Y-1033018D01*
X1084579Y-1046734D01*
X1093470Y-1064768D01*
X1098042Y-1087628D01*
X1098042Y-1105662D01*
X1093470Y-1128521D01*
X1084579Y-1146555D01*
X1075436Y-1160271D01*
X1066292Y-1169415D01*
X1428750Y-1023873D02*
G01*
X1419605Y-1033018D01*
X1410715Y-1046734D01*
X1401571Y-1064768D01*
X1397000Y-1087628D01*
X1397000Y-1105662D01*
X1401571Y-1128521D01*
X1410715Y-1146555D01*
X1419605Y-1160271D01*
X1428750Y-1169415D01*
X1458721Y-1042162D02*
G01*
X1458721Y-1137665D01*
X1493265Y-1064768D02*
G01*
X1493265Y-1060195D01*
X1497837Y-1051305D01*
X1502410Y-1046734D01*
X1511554Y-1042162D01*
X1529842Y-1042162D01*
X1538731Y-1046734D01*
X1543304Y-1051305D01*
X1547876Y-1060195D01*
X1547876Y-1069339D01*
X1543304Y-1078484D01*
X1534160Y-1092200D01*
X1488694Y-1137665D01*
X1552447Y-1137665D01*
X1650745Y-1064768D02*
G01*
X1646173Y-1055623D01*
X1637029Y-1046734D01*
X1627886Y-1042162D01*
X1609597Y-1042162D01*
X1600707Y-1046734D01*
X1591563Y-1055623D01*
X1586992Y-1064768D01*
X1582420Y-1078484D01*
X1582420Y-1101089D01*
X1586992Y-1114805D01*
X1591563Y-1123950D01*
X1600707Y-1133094D01*
X1609597Y-1137665D01*
X1627886Y-1137665D01*
X1637029Y-1133094D01*
X1646173Y-1123950D01*
X1650745Y-1114805D01*
X1680718Y-1023873D02*
G01*
X1689607Y-1033018D01*
X1698752Y-1046734D01*
X1707895Y-1064768D01*
X1712468Y-1087628D01*
X1712468Y-1105662D01*
X1707895Y-1128521D01*
X1698752Y-1146555D01*
X1689607Y-1160271D01*
X1680718Y-1169415D01*
X3841750Y-1023873D02*
G01*
X3832606Y-1033018D01*
X3823715Y-1046734D01*
X3814572Y-1064768D01*
X3810000Y-1087628D01*
X3810000Y-1105662D01*
X3814572Y-1128521D01*
X3823715Y-1146555D01*
X3832606Y-1160271D01*
X3841750Y-1169415D01*
X3903725Y-1042162D02*
G01*
X3903725Y-1137665D01*
X3871722Y-1042162D02*
G01*
X3935475Y-1042162D01*
X3992625Y-1042162D02*
G01*
X3983736Y-1046734D01*
X3974591Y-1055623D01*
X3970020Y-1064768D01*
X3965447Y-1078484D01*
X3965447Y-1101089D01*
X3970020Y-1114805D01*
X3974591Y-1123950D01*
X3983736Y-1133094D01*
X3992625Y-1137665D01*
X4010913Y-1137665D01*
X4020058Y-1133094D01*
X4029202Y-1123950D01*
X4033520Y-1114805D01*
X4038091Y-1101089D01*
X4038091Y-1078484D01*
X4033520Y-1064768D01*
X4029202Y-1055623D01*
X4020058Y-1046734D01*
X4010913Y-1042162D01*
X3992625Y-1042162D01*
X4068063Y-1042162D02*
G01*
X4068063Y-1110234D01*
X4072636Y-1123950D01*
X4081779Y-1133094D01*
X4095495Y-1137665D01*
X4104640Y-1137665D01*
X4118102Y-1133094D01*
X4127245Y-1123950D01*
X4131818Y-1110234D01*
X4131818Y-1042162D01*
X4230115Y-1064768D02*
G01*
X4225543Y-1055623D01*
X4216400Y-1046734D01*
X4207256Y-1042162D01*
X4188968Y-1042162D01*
X4180077Y-1046734D01*
X4170934Y-1055623D01*
X4166361Y-1064768D01*
X4161790Y-1078484D01*
X4161790Y-1101089D01*
X4166361Y-1114805D01*
X4170934Y-1123950D01*
X4180077Y-1133094D01*
X4188968Y-1137665D01*
X4207256Y-1137665D01*
X4216400Y-1133094D01*
X4225543Y-1123950D01*
X4230115Y-1114805D01*
X4260088Y-1042162D02*
G01*
X4260088Y-1137665D01*
X4323588Y-1042162D02*
G01*
X4323588Y-1137665D01*
X4260088Y-1087628D02*
G01*
X4323588Y-1087628D01*
X4353559Y-1023873D02*
G01*
X4362704Y-1033018D01*
X4371847Y-1046734D01*
X4380991Y-1064768D01*
X4385563Y-1087628D01*
X4385563Y-1105662D01*
X4380991Y-1128521D01*
X4371847Y-1146555D01*
X4362704Y-1160271D01*
X4353559Y-1169415D01*
X4540247Y-1023873D02*
G01*
X4531103Y-1033018D01*
X4522213Y-1046734D01*
X4513069Y-1064768D01*
X4508497Y-1087628D01*
X4508497Y-1105662D01*
X4513069Y-1128521D01*
X4522213Y-1146555D01*
X4531103Y-1160271D01*
X4540247Y-1169415D01*
X4570219Y-1042162D02*
G01*
X4570219Y-1137665D01*
X4570219Y-1042162D02*
G01*
X4602223Y-1042162D01*
X4615685Y-1046734D01*
X4624829Y-1055623D01*
X4629401Y-1064768D01*
X4633973Y-1078484D01*
X4633973Y-1101089D01*
X4629401Y-1114805D01*
X4624829Y-1123950D01*
X4615685Y-1133094D01*
X4602223Y-1137665D01*
X4570219Y-1137665D01*
X4663945Y-1042162D02*
G01*
X4663945Y-1137665D01*
X4693917Y-1042162D02*
G01*
X4693917Y-1137665D01*
X4693917Y-1042162D02*
G01*
X4730239Y-1137665D01*
X4766561Y-1042162D02*
G01*
X4730239Y-1137665D01*
X4766561Y-1042162D02*
G01*
X4766561Y-1137665D01*
X4878575Y-1023873D02*
G01*
X4796787Y-1169415D01*
X4940297Y-1042162D02*
G01*
X4940297Y-1137665D01*
X4908547Y-1042162D02*
G01*
X4972047Y-1042162D01*
X5029451Y-1042162D02*
G01*
X5020307Y-1046734D01*
X5011163Y-1055623D01*
X5006591Y-1064768D01*
X5002019Y-1078484D01*
X5002019Y-1101089D01*
X5006591Y-1114805D01*
X5011163Y-1123950D01*
X5020307Y-1133094D01*
X5029451Y-1137665D01*
X5047485Y-1137665D01*
X5056629Y-1133094D01*
X5065773Y-1123950D01*
X5070345Y-1114805D01*
X5074917Y-1101089D01*
X5074917Y-1078484D01*
X5070345Y-1064768D01*
X5065773Y-1055623D01*
X5056629Y-1046734D01*
X5047485Y-1042162D01*
X5029451Y-1042162D01*
X5104889Y-1042162D02*
G01*
X5104889Y-1110234D01*
X5109461Y-1123950D01*
X5118605Y-1133094D01*
X5132067Y-1137665D01*
X5141211Y-1137665D01*
X5154927Y-1133094D01*
X5163817Y-1123950D01*
X5168389Y-1110234D01*
X5168389Y-1042162D01*
X5266687Y-1064768D02*
G01*
X5262115Y-1055623D01*
X5252971Y-1046734D01*
X5243827Y-1042162D01*
X5225793Y-1042162D01*
X5216649Y-1046734D01*
X5207505Y-1055623D01*
X5202933Y-1064768D01*
X5198615Y-1078484D01*
X5198615Y-1101089D01*
X5202933Y-1114805D01*
X5207505Y-1123950D01*
X5216649Y-1133094D01*
X5225793Y-1137665D01*
X5243827Y-1137665D01*
X5252971Y-1133094D01*
X5262115Y-1123950D01*
X5266687Y-1114805D01*
X5296659Y-1042162D02*
G01*
X5296659Y-1137665D01*
X5360413Y-1042162D02*
G01*
X5360413Y-1137665D01*
X5296659Y-1087628D02*
G01*
X5360413Y-1087628D01*
X5390385Y-1023873D02*
G01*
X5399275Y-1033018D01*
X5408419Y-1046734D01*
X5417563Y-1064768D01*
X5422135Y-1087628D01*
X5422135Y-1105662D01*
X5417563Y-1128521D01*
X5408419Y-1146555D01*
X5399275Y-1160271D01*
X5390385Y-1169415D01*
X1850905Y-7113780D02*
G01*
X1850905Y-7352286D01*
X1850905Y-7227318D02*
G01*
X1828045Y-7204712D01*
X1805439Y-7193282D01*
X1771403Y-7193282D01*
X1748543Y-7204712D01*
X1725937Y-7227318D01*
X1714507Y-7261354D01*
X1714507Y-7284214D01*
X1725937Y-7318250D01*
X1748543Y-7341110D01*
X1771403Y-7352286D01*
X1805439Y-7352286D01*
X1828045Y-7341110D01*
X1850905Y-7318250D01*
X1925835Y-7261354D02*
G01*
X2062233Y-7261354D01*
X2062233Y-7238748D01*
X2050803Y-7215888D01*
X2039373Y-7204712D01*
X2016767Y-7193282D01*
X1982731Y-7193282D01*
X1959871Y-7204712D01*
X1937265Y-7227318D01*
X1925835Y-7261354D01*
X1925835Y-7284214D01*
X1937265Y-7318250D01*
X1959871Y-7341110D01*
X1982731Y-7352286D01*
X2016767Y-7352286D01*
X2039373Y-7341110D01*
X2062233Y-7318250D01*
X2137163Y-7261354D02*
G01*
X2273561Y-7261354D01*
X2273561Y-7238748D01*
X2262131Y-7215888D01*
X2250955Y-7204712D01*
X2228095Y-7193282D01*
X2194059Y-7193282D01*
X2171199Y-7204712D01*
X2148593Y-7227318D01*
X2137163Y-7261354D01*
X2137163Y-7284214D01*
X2148593Y-7318250D01*
X2171199Y-7341110D01*
X2194059Y-7352286D01*
X2228095Y-7352286D01*
X2250955Y-7341110D01*
X2273561Y-7318250D01*
X2348491Y-7113780D02*
G01*
X2348491Y-7352286D01*
X2348491Y-7227318D02*
G01*
X2371351Y-7204712D01*
X2393957Y-7193282D01*
X2428247Y-7193282D01*
X2450853Y-7204712D01*
X2473459Y-7227318D01*
X2484889Y-7261354D01*
X2484889Y-7284214D01*
X2473459Y-7318250D01*
X2450853Y-7341110D01*
X2428247Y-7352286D01*
X2393957Y-7352286D01*
X2371351Y-7341110D01*
X2348491Y-7318250D01*
X2560073Y-7193282D02*
G01*
X2560073Y-7306820D01*
X2571249Y-7341110D01*
X2594109Y-7352286D01*
X2628145Y-7352286D01*
X2650751Y-7341110D01*
X2685041Y-7306820D01*
X2685041Y-7193282D02*
G01*
X2685041Y-7352286D01*
X2896369Y-7193282D02*
G01*
X2896369Y-7375146D01*
X2884939Y-7409182D01*
X2873509Y-7420612D01*
X2850903Y-7431788D01*
X2816867Y-7431788D01*
X2794007Y-7420612D01*
X2896369Y-7227318D02*
G01*
X2873509Y-7204712D01*
X2850903Y-7193282D01*
X2816867Y-7193282D01*
X2794007Y-7204712D01*
X2771401Y-7227318D01*
X2759971Y-7261354D01*
X2759971Y-7284214D01*
X2771401Y-7318250D01*
X2794007Y-7341110D01*
X2816867Y-7352286D01*
X2850903Y-7352286D01*
X2873509Y-7341110D01*
X2896369Y-7318250D01*
X3107697Y-7193282D02*
G01*
X3107697Y-7375146D01*
X3096267Y-7409182D01*
X3084837Y-7420612D01*
X3062231Y-7431788D01*
X3028195Y-7431788D01*
X3005335Y-7420612D01*
X3107697Y-7227318D02*
G01*
X3084837Y-7204712D01*
X3062231Y-7193282D01*
X3028195Y-7193282D01*
X3005335Y-7204712D01*
X2982729Y-7227318D01*
X2971299Y-7261354D01*
X2971299Y-7284214D01*
X2982729Y-7318250D01*
X3005335Y-7341110D01*
X3028195Y-7352286D01*
X3062231Y-7352286D01*
X3084837Y-7341110D01*
X3107697Y-7318250D01*
X3182627Y-7261354D02*
G01*
X3319025Y-7261354D01*
X3319025Y-7238748D01*
X3307595Y-7215888D01*
X3296419Y-7204712D01*
X3273559Y-7193282D01*
X3239523Y-7193282D01*
X3216663Y-7204712D01*
X3194057Y-7227318D01*
X3182627Y-7261354D01*
X3182627Y-7284214D01*
X3194057Y-7318250D01*
X3216663Y-7341110D01*
X3239523Y-7352286D01*
X3273559Y-7352286D01*
X3296419Y-7341110D01*
X3319025Y-7318250D01*
X3393955Y-7193282D02*
G01*
X3393955Y-7352286D01*
X3393955Y-7261354D02*
G01*
X3405385Y-7227318D01*
X3428245Y-7204712D01*
X3450851Y-7193282D01*
X3484887Y-7193282D01*
X3571247Y-7295644D02*
G01*
X3560071Y-7306820D01*
X3571247Y-7318250D01*
X3582677Y-7306820D01*
X3571247Y-7295644D01*
X3794005Y-7113780D02*
G01*
X3794005Y-7352286D01*
X3794005Y-7227318D02*
G01*
X3771399Y-7204712D01*
X3748539Y-7193282D01*
X3714503Y-7193282D01*
X3691643Y-7204712D01*
X3669037Y-7227318D01*
X3657607Y-7261354D01*
X3657607Y-7284214D01*
X3669037Y-7318250D01*
X3691643Y-7341110D01*
X3714503Y-7352286D01*
X3748539Y-7352286D01*
X3771399Y-7341110D01*
X3794005Y-7318250D01*
X3868935Y-7261354D02*
G01*
X4005333Y-7261354D01*
X4005333Y-7238748D01*
X3994157Y-7215888D01*
X3982727Y-7204712D01*
X3959867Y-7193282D01*
X3925831Y-7193282D01*
X3903225Y-7204712D01*
X3880365Y-7227318D01*
X3868935Y-7261354D01*
X3868935Y-7284214D01*
X3880365Y-7318250D01*
X3903225Y-7341110D01*
X3925831Y-7352286D01*
X3959867Y-7352286D01*
X3982727Y-7341110D01*
X4005333Y-7318250D01*
X1714507Y-7519164D02*
G01*
X1714507Y-7614414D01*
X1714507Y-7519164D02*
G01*
X1773689Y-7519164D01*
X1714507Y-7564630D02*
G01*
X1750829Y-7564630D01*
X1714507Y-7614414D02*
G01*
X1773689Y-7614414D01*
X1867161Y-7532626D02*
G01*
X1858017Y-7523736D01*
X1844555Y-7519164D01*
X1826267Y-7519164D01*
X1812551Y-7523736D01*
X1803661Y-7532626D01*
X1803661Y-7541770D01*
X1808233Y-7550914D01*
X1812551Y-7555486D01*
X1821695Y-7560058D01*
X1849127Y-7569202D01*
X1858017Y-7573520D01*
X1862589Y-7578092D01*
X1867161Y-7587236D01*
X1867161Y-7600952D01*
X1858017Y-7610096D01*
X1844555Y-7614414D01*
X1826267Y-7614414D01*
X1812551Y-7610096D01*
X1803661Y-7600952D01*
X1897133Y-7519164D02*
G01*
X1897133Y-7614414D01*
X1897133Y-7519164D02*
G01*
X1938027Y-7519164D01*
X1951743Y-7523736D01*
X1956315Y-7528054D01*
X1960887Y-7537198D01*
X1960887Y-7550914D01*
X1956315Y-7560058D01*
X1951743Y-7564630D01*
X1938027Y-7569202D01*
X1897133Y-7569202D01*
X2013465Y-7519164D02*
G01*
X2000003Y-7523736D01*
X1995431Y-7532626D01*
X1995431Y-7541770D01*
X2000003Y-7550914D01*
X2009147Y-7555486D01*
X2027181Y-7560058D01*
X2040897Y-7564630D01*
X2050041Y-7573520D01*
X2054613Y-7582664D01*
X2054613Y-7596380D01*
X2050041Y-7605524D01*
X2045469Y-7610096D01*
X2031753Y-7614414D01*
X2013465Y-7614414D01*
X2000003Y-7610096D01*
X1995431Y-7605524D01*
X1990859Y-7596380D01*
X1990859Y-7582664D01*
X1995431Y-7573520D01*
X2004575Y-7564630D01*
X2018037Y-7560058D01*
X2036325Y-7555486D01*
X2045469Y-7550914D01*
X2050041Y-7541770D01*
X2050041Y-7532626D01*
X2045469Y-7523736D01*
X2031753Y-7519164D01*
X2013465Y-7519164D01*
X2089157Y-7541770D02*
G01*
X2089157Y-7537198D01*
X2093475Y-7528054D01*
X2098047Y-7523736D01*
X2107191Y-7519164D01*
X2125479Y-7519164D01*
X2134369Y-7523736D01*
X2138941Y-7528054D01*
X2143513Y-7537198D01*
X2143513Y-7546342D01*
X2138941Y-7555486D01*
X2130051Y-7569202D01*
X2084585Y-7614414D01*
X2148085Y-7614414D01*
X2232667Y-7532626D02*
G01*
X2228095Y-7523736D01*
X2214379Y-7519164D01*
X2205489Y-7519164D01*
X2191773Y-7523736D01*
X2182629Y-7537198D01*
X2178057Y-7560058D01*
X2178057Y-7582664D01*
X2182629Y-7600952D01*
X2191773Y-7610096D01*
X2205489Y-7614414D01*
X2210061Y-7614414D01*
X2223523Y-7610096D01*
X2232667Y-7600952D01*
X2237239Y-7587236D01*
X2237239Y-7582664D01*
X2232667Y-7569202D01*
X2223523Y-7560058D01*
X2210061Y-7555486D01*
X2205489Y-7555486D01*
X2191773Y-7560058D01*
X2182629Y-7569202D01*
X2178057Y-7582664D01*
X2321821Y-7532626D02*
G01*
X2317249Y-7523736D01*
X2303533Y-7519164D01*
X2294389Y-7519164D01*
X2280927Y-7523736D01*
X2271783Y-7537198D01*
X2267211Y-7560058D01*
X2267211Y-7582664D01*
X2271783Y-7600952D01*
X2280927Y-7610096D01*
X2294389Y-7614414D01*
X2298961Y-7614414D01*
X2312677Y-7610096D01*
X2321821Y-7600952D01*
X2326393Y-7587236D01*
X2326393Y-7582664D01*
X2321821Y-7569202D01*
X2312677Y-7560058D01*
X2298961Y-7555486D01*
X2294389Y-7555486D01*
X2280927Y-7560058D01*
X2271783Y-7569202D01*
X2267211Y-7582664D01*
X2426215Y-7519164D02*
G01*
X2426215Y-7614414D01*
X2426215Y-7519164D02*
G01*
X2489969Y-7614414D01*
X2489969Y-7519164D02*
G01*
X2489969Y-7614414D01*
X2542801Y-7550914D02*
G01*
X2533657Y-7555486D01*
X2524513Y-7564630D01*
X2519941Y-7578092D01*
X2519941Y-7587236D01*
X2524513Y-7600952D01*
X2533657Y-7610096D01*
X2542801Y-7614414D01*
X2556263Y-7614414D01*
X2565407Y-7610096D01*
X2574551Y-7600952D01*
X2579123Y-7587236D01*
X2579123Y-7578092D01*
X2574551Y-7564630D01*
X2565407Y-7555486D01*
X2556263Y-7550914D01*
X2542801Y-7550914D01*
X2663705Y-7519164D02*
G01*
X2663705Y-7614414D01*
X2663705Y-7564630D02*
G01*
X2654561Y-7555486D01*
X2645417Y-7550914D01*
X2631701Y-7550914D01*
X2622557Y-7555486D01*
X2613667Y-7564630D01*
X2609095Y-7578092D01*
X2609095Y-7587236D01*
X2613667Y-7600952D01*
X2622557Y-7610096D01*
X2631701Y-7614414D01*
X2645417Y-7614414D01*
X2654561Y-7610096D01*
X2663705Y-7600952D01*
X2693677Y-7578092D02*
G01*
X2748033Y-7578092D01*
X2748033Y-7569202D01*
X2743461Y-7560058D01*
X2739143Y-7555486D01*
X2729999Y-7550914D01*
X2716283Y-7550914D01*
X2707139Y-7555486D01*
X2698249Y-7564630D01*
X2693677Y-7578092D01*
X2693677Y-7587236D01*
X2698249Y-7600952D01*
X2707139Y-7610096D01*
X2716283Y-7614414D01*
X2729999Y-7614414D01*
X2739143Y-7610096D01*
X2748033Y-7600952D01*
X2778005Y-7519164D02*
G01*
X2778005Y-7614414D01*
X2778005Y-7519164D02*
G01*
X2814581Y-7614414D01*
X2850903Y-7519164D02*
G01*
X2814581Y-7614414D01*
X2850903Y-7519164D02*
G01*
X2850903Y-7614414D01*
X2948947Y-7541770D02*
G01*
X2944375Y-7532626D01*
X2935485Y-7523736D01*
X2926341Y-7519164D01*
X2908053Y-7519164D01*
X2899163Y-7523736D01*
X2890019Y-7532626D01*
X2885447Y-7541770D01*
X2880875Y-7555486D01*
X2880875Y-7578092D01*
X2885447Y-7591808D01*
X2890019Y-7600952D01*
X2899163Y-7610096D01*
X2908053Y-7614414D01*
X2926341Y-7614414D01*
X2935485Y-7610096D01*
X2944375Y-7600952D01*
X2948947Y-7591808D01*
X2978919Y-7519164D02*
G01*
X2978919Y-7587236D01*
X2983491Y-7600952D01*
X2992635Y-7610096D01*
X3006351Y-7614414D01*
X3015495Y-7614414D01*
X3028957Y-7610096D01*
X3038101Y-7600952D01*
X3042673Y-7587236D01*
X3042673Y-7519164D01*
X3215393Y-7532626D02*
G01*
X3142749Y-7573520D01*
X3215393Y-7614414D01*
X3245365Y-7573520D02*
G01*
X3327153Y-7573520D01*
X3357125Y-7532626D02*
G01*
X3430023Y-7573520D01*
X3357125Y-7614414D01*
X3529845Y-7519164D02*
G01*
X3529845Y-7614414D01*
X3560071Y-7519164D02*
G01*
X3560071Y-7614414D01*
X3560071Y-7614414D02*
G01*
X3614427Y-7614414D01*
X3644399Y-7519164D02*
G01*
X3644399Y-7614414D01*
X3733553Y-7550914D02*
G01*
X3728981Y-7564630D01*
X3719837Y-7573520D01*
X3706375Y-7578092D01*
X3701803Y-7578092D01*
X3688087Y-7573520D01*
X3678943Y-7564630D01*
X3674371Y-7550914D01*
X3674371Y-7546342D01*
X3678943Y-7532626D01*
X3688087Y-7523736D01*
X3701803Y-7519164D01*
X3706375Y-7519164D01*
X3719837Y-7523736D01*
X3728981Y-7532626D01*
X3733553Y-7550914D01*
X3733553Y-7573520D01*
X3728981Y-7596380D01*
X3719837Y-7610096D01*
X3706375Y-7614414D01*
X3697231Y-7614414D01*
X3683515Y-7610096D01*
X3678943Y-7600952D01*
X3808991Y-7519164D02*
G01*
X3763525Y-7582664D01*
X3831851Y-7582664D01*
X3808991Y-7519164D02*
G01*
X3808991Y-7614414D01*
X3884429Y-7519164D02*
G01*
X3870967Y-7523736D01*
X3866395Y-7532626D01*
X3866395Y-7541770D01*
X3870967Y-7550914D01*
X3879857Y-7555486D01*
X3898145Y-7560058D01*
X3911861Y-7564630D01*
X3920751Y-7573520D01*
X3925323Y-7582664D01*
X3925323Y-7596380D01*
X3920751Y-7605524D01*
X3916433Y-7610096D01*
X3902717Y-7614414D01*
X3884429Y-7614414D01*
X3870967Y-7610096D01*
X3866395Y-7605524D01*
X3861823Y-7596380D01*
X3861823Y-7582664D01*
X3866395Y-7573520D01*
X3875285Y-7564630D01*
X3889001Y-7560058D01*
X3907289Y-7555486D01*
X3916433Y-7550914D01*
X3920751Y-7541770D01*
X3920751Y-7532626D01*
X3916433Y-7523736D01*
X3902717Y-7519164D01*
X3884429Y-7519164D01*
X3978155Y-7519164D02*
G01*
X3964439Y-7523736D01*
X3959867Y-7532626D01*
X3959867Y-7541770D01*
X3964439Y-7550914D01*
X3973583Y-7555486D01*
X3991871Y-7560058D01*
X4005333Y-7564630D01*
X4014477Y-7573520D01*
X4019049Y-7582664D01*
X4019049Y-7596380D01*
X4014477Y-7605524D01*
X4009905Y-7610096D01*
X3996189Y-7614414D01*
X3978155Y-7614414D01*
X3964439Y-7610096D01*
X3959867Y-7605524D01*
X3955295Y-7596380D01*
X3955295Y-7582664D01*
X3959867Y-7573520D01*
X3969011Y-7564630D01*
X3982727Y-7560058D01*
X4000761Y-7555486D01*
X4009905Y-7550914D01*
X4014477Y-7541770D01*
X4014477Y-7532626D01*
X4009905Y-7523736D01*
X3996189Y-7519164D01*
X3978155Y-7519164D01*
X278384Y-1955797D02*
G01*
X387350Y-1955797D01*
X278384Y-1955797D02*
G01*
X278384Y-1909061D01*
X283463Y-1893567D01*
X288797Y-1888233D01*
X299212Y-1883153D01*
X309626Y-1883153D01*
X320039Y-1888233D01*
X325120Y-1893567D01*
X330200Y-1909061D01*
X330200Y-1955797D01*
X330200Y-1919475D02*
G01*
X387350Y-1883153D01*
X278384Y-1817621D02*
G01*
X283463Y-1833115D01*
X299212Y-1843529D01*
X325120Y-1848863D01*
X340613Y-1848863D01*
X366776Y-1843529D01*
X382270Y-1833115D01*
X387350Y-1817621D01*
X387350Y-1807207D01*
X382270Y-1791713D01*
X366776Y-1781299D01*
X340613Y-1775965D01*
X325120Y-1775965D01*
X299212Y-1781299D01*
X283463Y-1791713D01*
X278384Y-1807207D01*
X278384Y-1817621D01*
X849881Y-1955797D02*
G01*
X958847Y-1955797D01*
X849881Y-1955797D02*
G01*
X849881Y-1909061D01*
X854961Y-1893567D01*
X860295Y-1888233D01*
X870709Y-1883153D01*
X881123Y-1883153D01*
X891537Y-1888233D01*
X896617Y-1893567D01*
X901697Y-1909061D01*
X901697Y-1955797D01*
X901697Y-1919475D02*
G01*
X958847Y-1883153D01*
X870709Y-1848863D02*
G01*
X865375Y-1838449D01*
X849881Y-1822701D01*
X958847Y-1822701D01*
X317497Y-4647161D02*
G01*
X317497Y-4756127D01*
X356867Y-4673069D02*
G01*
X356867Y-4667989D01*
X362201Y-4657575D01*
X367281Y-4652241D01*
X377695Y-4647161D01*
X398523Y-4647161D01*
X408937Y-4652241D01*
X414017Y-4657575D01*
X419351Y-4667989D01*
X419351Y-4678403D01*
X414017Y-4688817D01*
X403857Y-4704311D01*
X351787Y-4756127D01*
X424431Y-4756127D01*
X536699Y-4673069D02*
G01*
X531619Y-4662655D01*
X521205Y-4652241D01*
X510791Y-4647161D01*
X489963Y-4647161D01*
X479549Y-4652241D01*
X469135Y-4662655D01*
X464055Y-4673069D01*
X458721Y-4688817D01*
X458721Y-4714725D01*
X464055Y-4730219D01*
X469135Y-4740633D01*
X479549Y-4751047D01*
X489963Y-4756127D01*
X510791Y-4756127D01*
X521205Y-4751047D01*
X531619Y-4740633D01*
X536699Y-4730219D01*
X602231Y-4647161D02*
G01*
X586737Y-4652241D01*
X576323Y-4667989D01*
X570989Y-4693897D01*
X570989Y-4709391D01*
X576323Y-4735553D01*
X586737Y-4751047D01*
X602231Y-4756127D01*
X612645Y-4756127D01*
X628139Y-4751047D01*
X638553Y-4735553D01*
X643887Y-4709391D01*
X643887Y-4693897D01*
X638553Y-4667989D01*
X628139Y-4652241D01*
X612645Y-4647161D01*
X602231Y-4647161D01*
X317497Y-4139161D02*
G01*
X317497Y-4248127D01*
X356867Y-4165069D02*
G01*
X356867Y-4159989D01*
X362201Y-4149575D01*
X367281Y-4144241D01*
X377695Y-4139161D01*
X398523Y-4139161D01*
X408937Y-4144241D01*
X414017Y-4149575D01*
X419351Y-4159989D01*
X419351Y-4170403D01*
X414017Y-4180817D01*
X403857Y-4196311D01*
X351787Y-4248127D01*
X424431Y-4248127D01*
X536699Y-4165069D02*
G01*
X531619Y-4154655D01*
X521205Y-4144241D01*
X510791Y-4139161D01*
X489963Y-4139161D01*
X479549Y-4144241D01*
X469135Y-4154655D01*
X464055Y-4165069D01*
X458721Y-4180817D01*
X458721Y-4206725D01*
X464055Y-4222219D01*
X469135Y-4232633D01*
X479549Y-4243047D01*
X489963Y-4248127D01*
X510791Y-4248127D01*
X521205Y-4243047D01*
X531619Y-4232633D01*
X536699Y-4222219D01*
X570989Y-4159989D02*
G01*
X581403Y-4154655D01*
X596897Y-4139161D01*
X596897Y-4248127D01*
X317497Y-3631163D02*
G01*
X317497Y-3740129D01*
X356867Y-3657071D02*
G01*
X356867Y-3651991D01*
X362201Y-3641577D01*
X367281Y-3636243D01*
X377695Y-3631163D01*
X398523Y-3631163D01*
X408937Y-3636243D01*
X414017Y-3641577D01*
X419351Y-3651991D01*
X419351Y-3662405D01*
X414017Y-3672819D01*
X403857Y-3688313D01*
X351787Y-3740129D01*
X424431Y-3740129D01*
X536699Y-3657071D02*
G01*
X531619Y-3646657D01*
X521205Y-3636243D01*
X510791Y-3631163D01*
X489963Y-3631163D01*
X479549Y-3636243D01*
X469135Y-3646657D01*
X464055Y-3657071D01*
X458721Y-3672819D01*
X458721Y-3698727D01*
X464055Y-3714221D01*
X469135Y-3724635D01*
X479549Y-3735049D01*
X489963Y-3740129D01*
X510791Y-3740129D01*
X521205Y-3735049D01*
X531619Y-3724635D01*
X536699Y-3714221D01*
X576323Y-3657071D02*
G01*
X576323Y-3651991D01*
X581403Y-3641577D01*
X586737Y-3636243D01*
X596897Y-3631163D01*
X617725Y-3631163D01*
X628139Y-3636243D01*
X633473Y-3641577D01*
X638553Y-3651991D01*
X638553Y-3662405D01*
X633473Y-3672819D01*
X623059Y-3688313D01*
X570989Y-3740129D01*
X643887Y-3740129D01*
X571500Y-2742178D02*
G01*
X571500Y-2851144D01*
X571500Y-2851144D02*
G01*
X633729Y-2851144D01*
X668020Y-2742178D02*
G01*
X668020Y-2851144D01*
X668020Y-2742178D02*
G01*
X735584Y-2742178D01*
X668020Y-2793994D02*
G01*
X709676Y-2793994D01*
X668020Y-2851144D02*
G01*
X735584Y-2851144D01*
X769873Y-2742178D02*
G01*
X769873Y-2851144D01*
X769873Y-2742178D02*
G01*
X806450Y-2742178D01*
X821944Y-2747258D01*
X832357Y-2757672D01*
X837437Y-2768086D01*
X842771Y-2783834D01*
X842771Y-2809742D01*
X837437Y-2825236D01*
X832357Y-2835650D01*
X821944Y-2846064D01*
X806450Y-2851144D01*
X769873Y-2851144D01*
X908050Y-2742178D02*
G01*
X892555Y-2747258D01*
X882142Y-2763006D01*
X877062Y-2788914D01*
X877062Y-2804408D01*
X882142Y-2830570D01*
X892555Y-2846064D01*
X908050Y-2851144D01*
X918463Y-2851144D01*
X934212Y-2846064D01*
X944626Y-2830570D01*
X949705Y-2804408D01*
X949705Y-2788914D01*
X944626Y-2763006D01*
X934212Y-2747258D01*
X918463Y-2742178D01*
X908050Y-2742178D01*
X584197Y-5561571D02*
G01*
X584197Y-5670537D01*
X584197Y-5561571D02*
G01*
X630933Y-5561571D01*
X646427Y-5566651D01*
X651761Y-5571985D01*
X656841Y-5582399D01*
X656841Y-5597893D01*
X651761Y-5608307D01*
X646427Y-5613387D01*
X630933Y-5618721D01*
X584197Y-5618721D01*
X722373Y-5561571D02*
G01*
X706879Y-5566651D01*
X696465Y-5582399D01*
X691131Y-5608307D01*
X691131Y-5623801D01*
X696465Y-5649963D01*
X706879Y-5665457D01*
X722373Y-5670537D01*
X732787Y-5670537D01*
X748281Y-5665457D01*
X758695Y-5649963D01*
X764029Y-5623801D01*
X764029Y-5608307D01*
X758695Y-5582399D01*
X748281Y-5566651D01*
X732787Y-5561571D01*
X722373Y-5561571D01*
X584197Y-6387071D02*
G01*
X584197Y-6496037D01*
X584197Y-6387071D02*
G01*
X630933Y-6387071D01*
X646427Y-6392151D01*
X651761Y-6397485D01*
X656841Y-6407899D01*
X656841Y-6423393D01*
X651761Y-6433807D01*
X646427Y-6438887D01*
X630933Y-6444221D01*
X584197Y-6444221D01*
X691131Y-6407899D02*
G01*
X701545Y-6402565D01*
X717293Y-6387071D01*
X717293Y-6496037D01*
X1525170Y-595894D02*
G01*
X1525170Y-678952D01*
X1519836Y-694446D01*
X1514756Y-699780D01*
X1504342Y-704860D01*
X1493928Y-704860D01*
X1483514Y-699780D01*
X1478434Y-694446D01*
X1473100Y-678952D01*
X1473100Y-668538D01*
X1590702Y-595894D02*
G01*
X1574954Y-600974D01*
X1564540Y-616722D01*
X1559460Y-642630D01*
X1559460Y-658124D01*
X1564540Y-684286D01*
X1574954Y-699780D01*
X1590702Y-704860D01*
X1601116Y-704860D01*
X1616610Y-699780D01*
X1627024Y-684286D01*
X1632104Y-658124D01*
X1632104Y-642630D01*
X1627024Y-616722D01*
X1616610Y-600974D01*
X1601116Y-595894D01*
X1590702Y-595894D01*
X1697636Y-595894D02*
G01*
X1682142Y-600974D01*
X1671728Y-616722D01*
X1666394Y-642630D01*
X1666394Y-658124D01*
X1671728Y-684286D01*
X1682142Y-699780D01*
X1697636Y-704860D01*
X1708050Y-704860D01*
X1723544Y-699780D01*
X1733958Y-684286D01*
X1739292Y-658124D01*
X1739292Y-642630D01*
X1733958Y-616722D01*
X1723544Y-600974D01*
X1708050Y-595894D01*
X1697636Y-595894D01*
X4115711Y-637804D02*
G01*
X4115711Y-720862D01*
X4110631Y-736610D01*
X4105297Y-741690D01*
X4094883Y-747024D01*
X4084469Y-747024D01*
X4074309Y-741690D01*
X4068975Y-736610D01*
X4063895Y-720862D01*
X4063895Y-710448D01*
X4150001Y-658632D02*
G01*
X4160415Y-653298D01*
X4175909Y-637804D01*
X4175909Y-747024D01*
X4241441Y-637804D02*
G01*
X4225947Y-642884D01*
X4215533Y-658632D01*
X4210199Y-684540D01*
X4210199Y-700034D01*
X4215533Y-726196D01*
X4225947Y-741690D01*
X4241441Y-747024D01*
X4251855Y-747024D01*
X4267349Y-741690D01*
X4277763Y-726196D01*
X4283097Y-700034D01*
X4283097Y-684540D01*
X4277763Y-658632D01*
X4267349Y-642884D01*
X4251855Y-637804D01*
X4241441Y-637804D01*
X712424Y-634044D02*
G01*
X712424Y-717102D01*
X707090Y-732596D01*
X702010Y-737930D01*
X691596Y-743010D01*
X681182Y-743010D01*
X670768Y-737930D01*
X665688Y-732596D01*
X660354Y-717102D01*
X660354Y-706688D01*
X777702Y-634044D02*
G01*
X762208Y-639124D01*
X751794Y-654618D01*
X746714Y-680780D01*
X746714Y-696274D01*
X751794Y-722182D01*
X762208Y-737930D01*
X777702Y-743010D01*
X788116Y-743010D01*
X803864Y-737930D01*
X814278Y-722182D01*
X819358Y-696274D01*
X819358Y-680780D01*
X814278Y-654618D01*
X803864Y-639124D01*
X788116Y-634044D01*
X777702Y-634044D01*
X853648Y-654618D02*
G01*
X864062Y-649538D01*
X879556Y-634044D01*
X879556Y-743010D01*
X2782567Y-646681D02*
G01*
X2782567Y-729739D01*
X2777233Y-745487D01*
X2772153Y-750567D01*
X2761739Y-755647D01*
X2751325Y-755647D01*
X2740911Y-750567D01*
X2735577Y-745487D01*
X2730497Y-729739D01*
X2730497Y-719325D01*
X2821937Y-672589D02*
G01*
X2821937Y-667509D01*
X2827017Y-657095D01*
X2832351Y-651761D01*
X2842765Y-646681D01*
X2863593Y-646681D01*
X2874007Y-651761D01*
X2879087Y-657095D01*
X2884167Y-667509D01*
X2884167Y-677923D01*
X2879087Y-688337D01*
X2868673Y-703831D01*
X2816857Y-755647D01*
X2889501Y-755647D01*
X4840036Y-634006D02*
G01*
X4840036Y-717064D01*
X4834702Y-732812D01*
X4829622Y-737892D01*
X4819208Y-742972D01*
X4808794Y-742972D01*
X4798380Y-737892D01*
X4793046Y-732812D01*
X4787966Y-717064D01*
X4787966Y-706650D01*
X4874326Y-654834D02*
G01*
X4884486Y-649500D01*
X4900234Y-634006D01*
X4900234Y-742972D01*
X4934524Y-654834D02*
G01*
X4944938Y-649500D01*
X4960432Y-634006D01*
X4960432Y-742972D01*
D11*
X5042489Y-1313997D02*
G01*
X5042489Y-6813986D01*
X1942495Y-1313997D02*
G01*
X1942495Y-6813986D01*
X2042495Y-1213998D02*
G01*
X4942489Y-1213998D01*
X2042495Y-6913986D02*
G01*
X4942489Y-6913986D01*
X3174992Y-6591292D02*
G01*
X3809992Y-6591292D01*
X3809992Y-6972292D01*
X3174992Y-6972292D01*
X3174992Y-6591292D01*
X446498Y-2154996D02*
G01*
X696501Y-2154996D01*
X696501Y-1654997D01*
X446498Y-1654997D01*
X446498Y-2154996D01*
X572239Y-1654997D02*
G01*
X572239Y-1538109D01*
X564982Y-2154996D02*
G01*
X564982Y-2272088D01*
X1017996Y-2154996D02*
G01*
X1267998Y-2154996D01*
X1267998Y-1654997D01*
X1017996Y-1654997D01*
X1017996Y-2154996D01*
X1143736Y-1654997D02*
G01*
X1143736Y-1538109D01*
X1136479Y-2154996D02*
G01*
X1136479Y-2272088D01*
X317497Y-4825989D02*
G01*
X1333497Y-4825989D01*
X1333497Y-5079989D01*
X317497Y-5079989D01*
X317497Y-4825989D01*
X317497Y-4317989D02*
G01*
X1333497Y-4317989D01*
X1333497Y-4571989D01*
X317497Y-4571989D01*
X317497Y-4317989D01*
X317497Y-3809992D02*
G01*
X1333497Y-3809992D01*
X1333497Y-4063992D01*
X317497Y-4063992D01*
X317497Y-3809992D01*
X1079497Y-3174994D02*
G01*
X571497Y-3174994D01*
X571497Y-2920994D01*
X1079497Y-2920994D01*
X1079497Y-3174994D01*
X1079497Y-5968987D02*
G01*
X571497Y-5968987D01*
X571497Y-5714987D01*
X1079497Y-5714987D01*
X1079497Y-5968987D01*
X1079497Y-6794487D02*
G01*
X571497Y-6794487D01*
X571497Y-6540487D01*
X1079497Y-6540487D01*
X1079497Y-6794487D01*
X1777997Y-2158992D02*
G01*
X1777997Y-5968992D01*
X1523997Y-5968992D01*
X1523997Y-2158992D01*
X1777997Y-2158992D01*
X5460989Y-2158992D02*
G01*
X5460989Y-5968992D01*
X5206989Y-5968992D01*
X5206989Y-2158992D01*
X5460989Y-2158992D01*
D12*
X1447162Y-988997D02*
G01*
X1447162Y-788997D01*
X1727502Y-788997D01*
X1727502Y-988997D01*
X1447167Y-988997D01*
X4204327Y-788997D02*
G01*
X4204327Y-988997D01*
X3923987Y-988997D01*
X3923987Y-788997D01*
X4204322Y-788997D01*
X967000Y-788997D02*
G01*
X967000Y-988997D01*
X556994Y-988997D01*
X556994Y-788997D01*
X967000Y-788997D01*
X3062498Y-788997D02*
G01*
X3062498Y-988997D01*
X2652491Y-988997D01*
X2652491Y-788997D01*
X3062498Y-788997D01*
X5094493Y-788997D02*
G01*
X5094493Y-988997D01*
X4684486Y-988997D01*
X4684486Y-788997D01*
X5094493Y-788997D01*
D11*
G75*
G01*
X2042495Y-6913987D02*
G02*
X1942495Y-6813987I0J100000D01*
G75*
G01*
X5042489Y-6813987D02*
G02*
X4942489Y-6913987I-100000J0D01*
G75*
G01*
X1942495Y-1313998D02*
G02*
X2042495Y-1213998I100000J0D01*
G75*
G01*
X4942489Y-1213998D02*
G02*
X5042489Y-1313998I0J-100000D01*
M02*
