G04 Layer: TopLayer*
G04 EasyEDA v6.5.47, 2024-09-27 13:25:38*
G04 cb8a5c33274e4434a5d5d060cedbf222,e87ba6ffdfb0417d91de07616a749205,10*
G04 Gerber Generator version 0.2*
G04 Scale: 100 percent, Rotated: No, Reflected: No *
G04 Dimensions in millimeters *
G04 leading zeros omitted , absolute positions ,4 integer and 5 decimal *
%FSLAX45Y45*%
%MOMM*%

%AMMACRO1*4,1,8,0.5,-0.7499,-0.5,-0.7499,-0.5,-0.7499,-0.5,0.7499,-0.5,0.7499,0.5,0.7499,0.5,0.7499,0.5,-0.7499,0.5,-0.7499,0*%
%AMMACRO2*4,1,8,-0.5,0.7499,0.5,0.7499,0.5,0.7499,0.5,-0.7499,0.5,-0.7499,-0.5,-0.7499,-0.5,-0.7499,-0.5,0.7499,-0.5,0.7499,0*%
%AMMACRO3*21,1,$1,$2,0,0,$3*%
%ADD10C,0.3000*%
%ADD11MACRO1*%
%ADD12MACRO2*%
%ADD13MACRO3,1.524X1.524X0.0000*%
%ADD14C,1.5240*%
%ADD15R,1.8000X2.2000*%
%ADD16O,1.7999964X2.1999956000000003*%
%ADD17R,1.6510X1.6510*%
%ADD18C,1.6510*%
%ADD19C,0.6000*%

%LPD*%
D10*
X4759502Y-889000D02*
G01*
X4759502Y-1553590D01*
X2727502Y-1009040D02*
G01*
X2727502Y-1024661D01*
X2727502Y-889000D02*
G01*
X2727502Y-1009040D01*
X891997Y-889000D02*
G01*
X891997Y-1009040D01*
X1143000Y-1405001D02*
G01*
X891997Y-1153998D01*
X891997Y-1009040D01*
X1652498Y-888974D02*
G01*
X1766366Y-888974D01*
X762000Y-889000D02*
G01*
X762000Y-768934D01*
X762000Y-768934D02*
G01*
X786028Y-744905D01*
X1650161Y-744905D01*
X4872507Y-3302000D02*
G01*
X4584827Y-3014319D01*
X4584827Y-2412771D01*
X3082543Y-889000D02*
G01*
X3082543Y-2939237D01*
X2987497Y-889000D02*
G01*
X3082543Y-889000D01*
X444500Y-3937000D02*
G01*
X444500Y-4445000D01*
X444500Y-3937000D02*
G01*
X444500Y-3809390D01*
X952500Y-3048000D02*
G01*
X952500Y-3301390D01*
X444500Y-3809390D01*
X571500Y-1405001D02*
G01*
X730605Y-1564106D01*
X730605Y-2501900D01*
X1087501Y-2858795D01*
X1087501Y-3547998D01*
X698500Y-3937000D01*
X698500Y-4445000D02*
G01*
X698500Y-4953000D01*
X698500Y-3937000D02*
G01*
X698500Y-4445000D01*
X698500Y-5842000D02*
G01*
X698500Y-4953000D01*
X952500Y-6667500D02*
G01*
X952500Y-6286474D01*
X1651000Y-5587974D01*
X4872507Y-5842000D02*
G01*
X2376246Y-3345738D01*
X2376246Y-1364665D01*
X1265986Y-254406D01*
X1265986Y-212547D01*
X1144727Y-212547D02*
G01*
X1265986Y-212547D01*
X4872507Y-5588000D02*
G01*
X2632303Y-3347796D01*
X2632303Y-1446098D01*
X1398752Y-212547D01*
X5334000Y-4572000D02*
G01*
X5195976Y-4433976D01*
X5195976Y-787323D01*
X4489983Y-81330D01*
X4069968Y-81330D01*
X3938752Y-212547D01*
X4889500Y-889000D02*
G01*
X4889500Y-1871929D01*
X4998770Y-1981200D01*
X4998770Y-4191736D01*
X4872507Y-4318000D01*
X3430752Y-212547D02*
G01*
X3307943Y-89738D01*
X2791561Y-89738D01*
X2668752Y-212547D01*
X4872507Y-4064000D02*
G01*
X3430752Y-2622245D01*
X3430752Y-212547D01*
X3999001Y-889000D02*
G01*
X3999001Y-1412494D01*
X4872507Y-2286000D01*
X632002Y-889000D02*
G01*
X632002Y-1115695D01*
X857250Y-1340942D01*
X857250Y-2517241D01*
X1206500Y-2866491D01*
X1206500Y-3937000D01*
X1206500Y-4445000D02*
G01*
X1206500Y-4953000D01*
X2857500Y-889000D02*
G01*
X2857500Y-277799D01*
X2922752Y-212547D01*
X4128998Y-889000D02*
G01*
X4128998Y-656793D01*
X3684752Y-212547D01*
X5019497Y-889000D02*
G01*
X5019497Y-768934D01*
X5019497Y-768934D02*
G01*
X4844237Y-593674D01*
X4573879Y-593674D01*
X4192752Y-212547D01*
X952500Y-4445000D02*
G01*
X952500Y-4953000D01*
X1093571Y-4078071D02*
G01*
X952500Y-4219143D01*
X952500Y-4445000D01*
X1522501Y-888974D02*
G01*
X1522501Y-3816400D01*
X1260830Y-4078071D01*
X1093571Y-4078071D01*
X1093571Y-4078071D02*
G01*
X952500Y-3937000D01*
X698500Y-3048000D02*
G01*
X571500Y-2921000D01*
X571500Y-2404998D01*
D11*
G01*
X1652508Y-889010D03*
G01*
X1522511Y-889010D03*
D12*
G01*
X3998981Y-888984D03*
G01*
X4128978Y-888984D03*
G01*
X631987Y-888984D03*
G01*
X761984Y-888984D03*
G01*
X891981Y-888984D03*
G01*
X2727485Y-888984D03*
G01*
X2857482Y-888984D03*
G01*
X2987479Y-888984D03*
G01*
X4759479Y-888984D03*
G01*
X4889477Y-888984D03*
G01*
X5019474Y-888984D03*
D13*
G01*
X1144722Y-212554D03*
D14*
G01*
X1398752Y-212547D03*
G01*
X1652752Y-212547D03*
G01*
X1906752Y-212547D03*
G01*
X2160752Y-212547D03*
G01*
X2414752Y-212547D03*
G01*
X2668752Y-212547D03*
G01*
X2922752Y-212547D03*
G01*
X3176752Y-212547D03*
G01*
X3430752Y-212547D03*
G01*
X3684752Y-212547D03*
G01*
X3938752Y-212547D03*
G01*
X4192752Y-212547D03*
G01*
X4446752Y-212547D03*
G01*
X2112492Y-2286000D03*
G01*
X2112492Y-2540000D03*
G01*
X2112492Y-2794000D03*
G01*
X2112492Y-3048000D03*
G01*
X2112492Y-3302000D03*
G01*
X2112492Y-3556000D03*
G01*
X2112492Y-3810000D03*
G01*
X2112492Y-4064000D03*
G01*
X2112492Y-4318000D03*
G01*
X2112492Y-4572000D03*
G01*
X2112492Y-4826000D03*
G01*
X2112492Y-5080000D03*
G01*
X2112492Y-5334000D03*
G01*
X2112492Y-5588000D03*
G01*
X2112492Y-5842000D03*
G01*
X4872507Y-5842000D03*
G01*
X4872507Y-5588000D03*
G01*
X4872507Y-5334000D03*
G01*
X4872507Y-5080000D03*
G01*
X4872507Y-4826000D03*
G01*
X4872507Y-4572000D03*
G01*
X4872507Y-4318000D03*
G01*
X4872507Y-4064000D03*
G01*
X4872507Y-3810000D03*
G01*
X4872507Y-3556000D03*
G01*
X4872507Y-3302000D03*
G01*
X4872507Y-3048000D03*
G01*
X4872507Y-2794000D03*
G01*
X4872507Y-2540000D03*
G01*
X4872507Y-2286000D03*
D15*
G01*
X571500Y-2404998D03*
D16*
G01*
X571500Y-1405001D03*
D15*
G01*
X1143000Y-2404998D03*
D16*
G01*
X1143000Y-1405001D03*
D17*
G01*
X444500Y-4953000D03*
D18*
G01*
X698500Y-4953000D03*
G01*
X952500Y-4953000D03*
G01*
X1206500Y-4953000D03*
D17*
G01*
X444500Y-4445000D03*
D18*
G01*
X698500Y-4445000D03*
G01*
X952500Y-4445000D03*
G01*
X1206500Y-4445000D03*
D17*
G01*
X444500Y-3937000D03*
D18*
G01*
X698500Y-3937000D03*
G01*
X952500Y-3937000D03*
G01*
X1206500Y-3937000D03*
D17*
G01*
X952500Y-3048000D03*
D18*
G01*
X698500Y-3048000D03*
D17*
G01*
X952500Y-5842000D03*
D18*
G01*
X698500Y-5842000D03*
D17*
G01*
X952500Y-6667500D03*
D18*
G01*
X698500Y-6667500D03*
D17*
G01*
X1651000Y-2286000D03*
D18*
G01*
X1651000Y-2539974D03*
G01*
X1651000Y-2793974D03*
G01*
X1651000Y-3047974D03*
G01*
X1651000Y-3301974D03*
G01*
X1651000Y-3555974D03*
G01*
X1651000Y-3809974D03*
G01*
X1651000Y-4063974D03*
G01*
X1651000Y-4317974D03*
G01*
X1651000Y-4571974D03*
G01*
X1651000Y-4825974D03*
G01*
X1651000Y-5079974D03*
G01*
X1651000Y-5333974D03*
G01*
X1651000Y-5587974D03*
G01*
X1651000Y-5841974D03*
D17*
G01*
X5334000Y-2286000D03*
D18*
G01*
X5334000Y-2540000D03*
G01*
X5334000Y-2794000D03*
G01*
X5334000Y-3048000D03*
G01*
X5334000Y-3302000D03*
G01*
X5334000Y-3556000D03*
G01*
X5334000Y-3810000D03*
G01*
X5334000Y-4064000D03*
G01*
X5334000Y-4318000D03*
G01*
X5334000Y-4572000D03*
G01*
X5334000Y-4826000D03*
G01*
X5334000Y-5080000D03*
G01*
X5334000Y-5334000D03*
G01*
X5334000Y-5588000D03*
G01*
X5334000Y-5842000D03*
D19*
G01*
X2727502Y-1024661D03*
G01*
X4759502Y-1553590D03*
G01*
X1766366Y-888974D03*
G01*
X1650161Y-744905D03*
G01*
X4584827Y-2412771D03*
G01*
X3082543Y-2939237D03*
M02*
